<svg width="24" height="24" viewBox="0 0 24 24" fill="none" xmlns="http://www.w3.org/2000/svg">
<rect width="24" height="24" rx="4.36364" fill="#FFAA79"/>
<path d="M3.76615 16.9045C3.96847 16.9001 4.15202 16.9695 4.3153 17.1125C4.45542 16.9482 4.61109 16.7868 4.78423 16.6325C4.72197 16.4282 4.67888 16.2372 4.65013 16.0613C4.53996 15.3862 4.61881 14.8481 4.71748 14.4902C3.7495 15.0607 3.08044 16.0824 3 17.2659C3.20353 17.0868 3.47419 16.9132 3.76615 16.9045Z" fill="white"/>
<path d="M6.89436 14.9505C6.76037 15.111 6.72046 15.3214 6.77127 15.5888C7.55571 15.3941 8.43279 15.3776 9.3953 15.5402C9.12727 15.1467 8.78066 14.8114 8.37869 14.555C7.97306 14.5358 7.20401 14.5792 6.89436 14.9505Z" fill="white"/>
<path d="M4.98816 16.0331C5.00771 16.148 5.03449 16.2702 5.06893 16.3985C5.15643 16.3321 5.24688 16.2673 5.34205 16.2053C5.6834 15.9831 6.05098 15.8086 6.44358 15.6817C6.36446 15.2989 6.4283 14.9806 6.63441 14.7339C6.89932 14.4168 7.35396 14.2884 7.75466 14.2402C7.36376 14.0897 6.9394 14.0063 6.49533 14.0063C6.01878 14.0063 5.56458 14.1018 5.15035 14.2739C5.04741 14.5157 4.83769 15.1482 4.98816 16.0331Z" fill="white"/>
<path d="M6.86719 15.913C7.38578 17.1885 9.33078 17.8504 9.9636 18.0099C9.98736 17.8454 10.0003 17.6773 10.0003 17.5062C10.0003 16.9373 9.8635 16.4006 9.62225 15.9257C8.60039 15.7185 7.67889 15.7144 6.86719 15.913Z" fill="white"/>
<path d="M4.90602 16.9814C4.77318 17.1083 4.65168 17.2396 4.54102 17.373C5.14837 18.2374 5.03256 19.4039 4.7838 20.5599C5.29003 20.8436 5.87367 21.0061 6.49554 21.0061C7.03439 21.0061 7.54472 20.8843 8.00084 20.6674C6.1699 19.2838 5.30087 17.9984 4.90602 16.9814Z" fill="white"/>
<path d="M6.53872 16.0054C6.17689 16.1228 5.83882 16.2838 5.5254 16.4879C5.40165 16.5684 5.28584 16.6542 5.17578 16.7431C5.53438 17.7448 6.39016 19.0571 8.32602 20.4901C9.10032 20.0149 9.67504 19.2477 9.89724 18.3421C9.13088 18.1589 7.08387 17.3983 6.53872 16.0054Z" fill="white"/>
<path d="M3 17.7464C3.02825 18.1626 3.12928 18.5588 3.2907 18.9225C3.42661 18.5295 3.67613 17.9514 4.10465 17.3767C4.00242 17.2826 3.89406 17.2373 3.77622 17.242C3.48202 17.2507 3.16865 17.5474 3 17.7464Z" fill="white"/>
<path d="M4.32388 17.6562C3.82018 18.3618 3.59327 19.0619 3.51562 19.3464C3.76504 19.7486 4.09391 20.0962 4.48005 20.3682C4.68582 19.3712 4.77244 18.383 4.32388 17.6562Z" fill="white"/>
<path d="M8.36244 9.86266H9.2702C9.4489 12.4658 11.5344 14.5515 14.1371 14.7304V15.6377C14.1371 15.8377 14.2994 16 14.4996 16C14.6999 16 14.8622 15.8377 14.8622 15.6377V14.7304C17.4653 14.5515 19.5515 12.4658 19.7301 9.86266H20.6374C20.8377 9.86266 21 9.7004 21 9.50036C21 9.30003 20.8377 9.13777 20.6374 9.13777H19.7301C19.5515 6.53474 17.4653 4.44877 14.8622 4.27022V3.36259C14.8622 3.16226 14.6999 3 14.4996 3C14.2994 3 14.1371 3.16226 14.1371 3.36259V4.27022C11.5344 4.44877 9.4489 6.53474 9.2702 9.13792H8.36244C8.16225 9.13792 8 9.30017 8 9.5005C8.00014 9.7004 8.1624 9.86266 8.36244 9.86266ZM9.99696 9.86266H11.8808C12.0421 11.0319 12.968 11.9576 14.1373 12.1191V14.0036C11.9345 13.8278 10.1728 12.0657 9.99696 9.86266ZM13.0039 9.13792H12.6132C12.7608 8.3686 13.3678 7.76169 14.1373 7.614V8.00443C14.1373 8.20447 14.2995 8.36658 14.4997 8.36658C14.7 8.36658 14.8623 8.20433 14.8623 8.00443V7.614C15.6316 7.76126 16.2389 8.36831 16.3865 9.13792H15.9958C15.7957 9.13792 15.6335 9.30017 15.6335 9.5005C15.6335 9.70055 15.7957 9.86281 15.9958 9.86281H16.3865C16.2389 10.6324 15.6316 11.2398 14.8623 11.387V10.9963C14.8623 10.796 14.7 10.6337 14.4997 10.6337C14.2995 10.6337 14.1373 10.796 14.1373 10.9963V11.387C13.368 11.2392 12.7608 10.6321 12.6132 9.86281H13.0039C13.2041 9.86281 13.3664 9.70055 13.3664 9.5005C13.3664 9.30017 13.2041 9.13792 13.0039 9.13792ZM14.8622 14.0036V12.1193C16.0314 11.9582 16.9576 11.0319 17.1187 9.86266H19.0035C18.8277 12.066 17.0656 13.8278 14.8622 14.0036ZM19.0036 9.13792H17.1189C16.9578 7.96866 16.0315 7.04271 14.8622 6.88161V4.99669C17.0656 5.1728 18.8277 6.93454 19.0036 9.13792ZM14.1373 4.99669V6.88147C12.968 7.04286 12.0422 7.9688 11.8808 9.13777H9.99696C10.1728 6.93483 11.9345 5.1728 14.1373 4.99669Z" fill="white"/>
</svg>
