<svg width="24" height="24" viewBox="0 0 24 24" fill="none" xmlns="http://www.w3.org/2000/svg">
<rect width="24" height="24" rx="4.36364" fill="white"/>
<path d="M4.4229 13.3899C4.79865 13.3816 5.13953 13.5107 5.44278 13.7767C5.70302 13.4711 5.99213 13.171 6.31369 12.884C6.19806 12.5042 6.11803 12.149 6.06464 11.8219C5.86003 10.5665 6.00647 9.56577 6.18972 8.90039C4.39198 9.96116 3.14939 11.8611 3 14.0618C3.378 13.7288 3.88067 13.4059 4.4229 13.3899Z" fill="#FFAA79"/>
<path d="M10.231 9.7555C9.98216 10.054 9.90802 10.4452 10.0024 10.9426C11.4593 10.5804 13.0882 10.5498 14.8758 10.8521C14.378 10.1205 13.7342 9.49689 12.9877 9.02015C12.2344 8.98446 10.8061 9.0652 10.231 9.7555Z" fill="#FFAA79"/>
<path d="M6.69147 11.7688C6.72777 11.9825 6.7775 12.2098 6.84146 12.4484C7.00397 12.3249 7.17197 12.2044 7.34871 12.0891C7.98267 11.6758 8.66534 11.3514 9.39448 11.1155C9.24753 10.4035 9.36611 9.81167 9.74888 9.35283C10.2409 8.76321 11.0852 8.52443 11.8294 8.43494C11.1034 8.15498 10.3153 8 9.49058 8C8.60554 8 7.76199 8.17746 6.99268 8.49749C6.8015 8.94707 6.41201 10.1234 6.69147 11.7688Z" fill="#FFAA79"/>
<path d="M10.1816 11.5457C11.1448 13.9175 14.757 15.1483 15.9323 15.4451C15.9764 15.1391 16.0004 14.8266 16.0004 14.5084C16.0004 13.4505 15.7464 12.4524 15.2984 11.5693C13.4005 11.184 11.6891 11.1764 10.1816 11.5457Z" fill="#FFAA79"/>
<path d="M6.53922 13.5327C6.29251 13.7685 6.06685 14.0128 5.86133 14.2607C6.98931 15.8683 6.77423 18.0374 6.31224 20.1869C7.25239 20.7146 8.33635 21.0168 9.49128 21.0168C10.492 21.0168 11.4398 20.7903 12.2869 20.3869C8.88651 17.8141 7.27253 15.4237 6.53922 13.5327Z" fill="#FFAA79"/>
<path d="M9.57422 11.7178C8.90223 11.9362 8.27438 12.2355 7.69228 12.615C7.46245 12.7648 7.24737 12.9244 7.04297 13.0896C7.70896 14.9523 9.29833 17.3926 12.8936 20.0573C14.3317 19.1737 15.399 17.7471 15.8117 16.0629C14.3884 15.7223 10.5867 14.308 9.57422 11.7178Z" fill="#FFAA79"/>
<path d="M3 14.9551C3.05247 15.7291 3.2401 16.4658 3.53989 17.1422C3.79229 16.4113 4.25571 15.3364 5.05157 14.2676C4.8617 14.0927 4.66045 14.0085 4.44161 14.0172C3.89521 14.0334 3.31322 14.5851 3 14.9551Z" fill="#FFAA79"/>
<path d="M5.45618 14.7866C4.5207 16.0987 4.09928 17.4006 3.95508 17.9296C4.41829 18.6774 5.02906 19.3238 5.74621 19.8296C6.12837 17.9756 6.28925 16.1381 5.45618 14.7866Z" fill="#FFAA79"/>
<path d="M15.1952 5.69528H15.684C15.7802 7.09699 16.9031 8.22005 18.3046 8.31635V8.80491C18.3046 8.91263 18.392 9 18.4998 9C18.6076 9 18.695 8.91263 18.695 8.80491V8.31635C20.0967 8.22005 21.2201 7.09699 21.3162 5.69528H21.8048C21.9126 5.69528 22 5.60791 22 5.50019C22 5.39232 21.9126 5.30495 21.8048 5.30495H21.3162C21.2201 3.90332 20.0967 2.78011 18.695 2.68396V2.19524C18.695 2.08737 18.6076 2 18.4998 2C18.392 2 18.3046 2.08737 18.3046 2.19524V2.68396C16.9031 2.78011 15.7802 3.90332 15.684 5.30503H15.1952C15.0874 5.30503 15 5.3924 15 5.50027C15.0001 5.60791 15.0874 5.69528 15.1952 5.69528ZM16.0753 5.69528H17.0897C17.1765 6.32488 17.6751 6.82331 18.3047 6.91029V7.92501C17.1186 7.83034 16.17 6.88156 16.0753 5.69528ZM17.6944 5.30503H17.484C17.5635 4.89079 17.8904 4.56399 18.3047 4.48446V4.69469C18.3047 4.80241 18.3921 4.8897 18.4998 4.8897C18.6077 4.8897 18.6951 4.80233 18.6951 4.69469V4.48446C19.1093 4.56375 19.4364 4.89063 19.5158 5.30503H19.3054C19.1977 5.30503 19.1103 5.3924 19.1103 5.50027C19.1103 5.60799 19.1977 5.69536 19.3054 5.69536H19.5158C19.4364 6.10976 19.1093 6.43679 18.6951 6.51608V6.3057C18.6951 6.19783 18.6077 6.11046 18.4998 6.11046C18.3921 6.11046 18.3047 6.19783 18.3047 6.3057V6.51608C17.8904 6.43648 17.5635 6.1096 17.484 5.69536H17.6944C17.8022 5.69536 17.8896 5.60799 17.8896 5.50027C17.8896 5.3924 17.8022 5.30503 17.6944 5.30503ZM18.695 7.92501V6.91037C19.3246 6.82362 19.8233 6.32488 19.9101 5.69528H20.9249C20.8303 6.88171 19.8815 7.83034 18.695 7.92501ZM20.925 5.30503H19.9102C19.8234 4.67543 19.3247 4.17685 18.695 4.0901V3.07514C19.8815 3.16997 20.8303 4.1186 20.925 5.30503ZM18.3047 3.07514V4.09002C17.6751 4.17692 17.1766 4.67551 17.0897 5.30495H16.0753C16.17 4.11876 17.1186 3.16997 18.3047 3.07514Z" fill="#FFAA79"/>
</svg>
