<svg width="17" height="23" viewBox="0 0 17 23" fill="none" xmlns="http://www.w3.org/2000/svg">
<path d="M7.27723 6.13065C7.66538 5.43301 7.85945 5.08572 8.14953 5.08572C8.43962 5.08572 8.63369 5.43301 9.02184 6.13065L9.12193 6.31042C9.23225 6.50857 9.28741 6.60663 9.37321 6.672C9.46003 6.73737 9.56728 6.76189 9.78178 6.8099L9.97585 6.85484C10.7297 7.02542 11.1066 7.1102 11.1965 7.39824C11.2863 7.6873 11.0289 7.9876 10.5152 8.5882L10.3824 8.74346C10.2363 8.91404 10.1628 8.99882 10.1301 9.10505C10.0974 9.21128 10.1086 9.32465 10.1301 9.55243L10.1505 9.75978C10.2281 10.5616 10.267 10.963 10.033 11.1408C9.79812 11.3185 9.44471 11.1561 8.7389 10.8313L8.55709 10.7475C8.35586 10.6556 8.25576 10.6096 8.14953 10.6096C8.04331 10.6096 7.94321 10.6556 7.74198 10.7475L7.56017 10.8313C6.85436 11.1571 6.50095 11.3185 6.26602 11.1408C6.03109 10.963 6.07093 10.5616 6.14856 9.75978L6.16898 9.55243C6.19043 9.32465 6.20167 9.21128 6.16898 9.10505C6.1363 8.99984 6.06275 8.91404 5.91669 8.74346L5.7839 8.5882C5.27013 7.9876 5.01273 7.6873 5.10261 7.39824C5.1925 7.1102 5.5694 7.02542 6.32322 6.85484L6.51729 6.8099C6.73179 6.76189 6.83904 6.7384 6.92586 6.672C7.01166 6.60663 7.06682 6.50857 7.17713 6.31042L7.27723 6.13065Z" stroke="white" stroke-width="1.5"/>
<path d="M15.3 8.15C15.3 9.08896 15.1151 10.0187 14.7557 10.8862C14.3964 11.7537 13.8698 12.5419 13.2058 13.2058C12.5419 13.8698 11.7537 14.3964 10.8862 14.7557C10.0187 15.1151 9.08896 15.3 8.15 15.3C7.21105 15.3 6.28129 15.1151 5.41382 14.7557C4.54634 14.3964 3.75813 13.8698 3.09419 13.2058C2.43025 12.5419 1.90358 11.7537 1.54426 10.8862C1.18494 10.0187 1 9.08896 1 8.15C1 6.25371 1.7533 4.43507 3.09419 3.09419C4.43507 1.7533 6.25371 1 8.15 1C10.0463 1 11.8649 1.7533 13.2058 3.09419C14.5467 4.43507 15.3 6.25371 15.3 8.15Z" stroke="white" stroke-width="1.5"/>
<path d="M3.40129 14.2786L2.75064 16.6514C2.10918 18.9925 1.78845 20.163 2.21643 20.8035C2.36658 21.0282 2.5678 21.208 2.80171 21.3275C3.46768 21.6666 4.49728 21.1303 6.55546 20.0578C7.23982 19.7003 7.58302 19.5226 7.94665 19.4838C8.08177 19.4693 8.21805 19.4693 8.35318 19.4838C8.71681 19.5226 9.05898 19.7013 9.74436 20.0578C11.8025 21.1303 12.8321 21.6666 13.4981 21.3275C13.732 21.208 13.9332 21.0282 14.0834 20.8035C14.5124 20.163 14.1906 18.9925 13.5492 16.6514L12.8985 14.2786" stroke="white" stroke-width="1.5" stroke-linecap="round"/>
</svg>
