<svg width="7" height="10" viewBox="0 0 7 10" fill="none" xmlns="http://www.w3.org/2000/svg">
    <path d="M0 5C0.00611888 4.66525 0.134615 4.39957 0.458916 4.12859L4.96853 0.292242C5.19493 0.0956429 5.46416 0 5.78846 0C6.45542 0 7 0.472901 7 1.03613C7 1.31775 6.86538 1.58874 6.60227 1.80659L2.79021 4.99469L6.60227 8.19341C6.85927 8.41126 7 8.67694 7 8.96387C7 9.53241 6.45542 10 5.78846 10C5.47028 10 5.19493 9.90967 4.96853 9.70776L0.458916 5.87141C0.134615 5.60043 0 5.32944 0 5Z" fill="#313A3E"/>
</svg>
