<svg width="24" height="24" viewBox="0 0 24 24" fill="none" xmlns="http://www.w3.org/2000/svg">
<rect width="24" height="24" rx="4.36364" fill="white"/>
<path d="M12.0028 7.35094C12.0028 7.50608 11.901 7.64286 11.7524 7.68727C10.9513 7.92675 10.8198 8.05823 10.5803 8.85932C10.5359 9.00794 10.3991 9.10978 10.244 9.10978C10.0888 9.10978 9.95206 9.00797 9.90764 8.85932C9.668 8.05826 9.53652 7.92678 8.73559 7.68727C8.58698 7.64286 8.48513 7.50608 8.48513 7.35094C8.48513 7.19579 8.58695 7.05901 8.73559 7.0146C9.53648 6.77495 9.668 6.64347 9.90764 5.84255C9.95206 5.69394 10.0888 5.59209 10.244 5.59209C10.3991 5.59209 10.5359 5.6939 10.5803 5.84255C10.8198 6.64344 10.9513 6.77495 11.7524 7.0146C11.901 7.05901 12.0028 7.19579 12.0028 7.35094ZM17.0159 17.546C16.2148 17.3066 16.0833 17.1751 15.8438 16.374C15.7994 16.2254 15.6626 16.1235 15.5075 16.1235C15.3523 16.1235 15.2155 16.2253 15.1711 16.374C14.9317 17.175 14.8002 17.3065 13.9991 17.546C13.8505 17.5904 13.7486 17.7272 13.7486 17.8824C13.7486 18.0375 13.8504 18.1743 13.9991 18.2187C14.8001 18.4584 14.9316 18.5898 15.1711 19.3908C15.2155 19.5394 15.3523 19.6412 15.5075 19.6412C15.6626 19.6412 15.7994 19.5394 15.8438 19.3908C16.0833 18.5899 16.2148 18.4584 17.0159 18.2187C17.1645 18.1743 17.2663 18.0375 17.2663 17.8824C17.2663 17.7272 17.1645 17.5904 17.0159 17.546ZM10.6935 16.3508C10.6432 16.3771 10.5877 16.3904 10.5317 16.3904C10.5106 16.3904 10.4895 16.3885 10.4686 16.3848C10.1461 16.3258 8.51087 16.0128 7.97329 15.6379C7.53152 15.3299 7.3464 14.8603 7.4902 14.4126C7.6774 13.8306 8.33483 13.455 9.18698 13.4721C9.38085 13.4747 9.53599 13.6338 9.5336 13.8277C9.53104 14.0215 9.37042 14.1602 9.17806 14.1743C8.57585 14.1669 8.23042 14.4038 8.15877 14.6273C8.09396 14.8291 8.26627 14.9863 8.37493 15.0619C8.67766 15.2731 9.77652 15.5375 10.4773 15.672L11.8461 14.9608L11.8451 14.9592C12.0651 14.7623 12.2181 14.4991 12.2804 14.201C12.3695 13.7733 12.2584 13.337 11.9677 12.9949L9.95785 10.7872C9.8784 10.6999 9.76131 10.6514 9.64465 10.6692C8.39971 10.8591 5.97412 12.1348 2.7144 13.992C2.4552 14.1396 2.2699 14.3913 2.20611 14.6825C2.14217 14.9736 2.20491 15.2796 2.37821 15.5218L3.89706 17.6453C4.16893 18.0255 4.5982 18.2341 5.03962 18.2341C5.24584 18.2341 5.45481 18.1885 5.65162 18.0937L7.04756 17.4202C7.74596 17.8575 9.05462 18.4731 10.2292 17.8964C10.3533 17.8355 10.4778 17.7766 10.6 17.7186C11.3931 17.3425 12.142 16.9873 12.3106 16.3541C12.3524 16.1969 12.3546 16.0339 12.3188 15.8673C12.2835 15.7029 12.0912 15.6245 11.942 15.702L10.6935 16.3508ZM21.7505 8.67163L20.9516 6.18629C20.8604 5.90276 20.6521 5.66978 20.3804 5.54757C20.1084 5.42483 19.796 5.42364 19.5229 5.54381C16.0876 7.05346 13.6169 8.24019 12.7228 9.12576C12.639 9.20872 12.6082 9.3316 12.6308 9.44731L13.2071 12.3891C13.3058 12.8145 13.5899 13.1637 13.9862 13.3472C14.2627 13.4752 14.5658 13.5087 14.8546 13.4502L14.8552 13.4516L16.2423 12.7772C16.5521 12.1342 16.995 11.0943 17.0062 10.7257C17.0101 10.5934 16.987 10.3614 16.7864 10.293C16.5631 10.2169 16.1652 10.3565 15.8146 10.8409C15.7013 10.9981 15.4815 11.0337 15.3245 10.9196C15.1673 10.8059 15.1321 10.5865 15.2458 10.4295C15.7405 9.7458 16.434 9.43124 17.0127 9.6284C17.4579 9.77993 17.7243 10.2085 17.708 10.7468C17.6885 11.402 16.9645 12.9013 16.8197 13.1953C16.7852 13.2652 16.7285 13.3216 16.6583 13.3557L15.3933 13.9708C15.242 14.0444 15.1904 14.2455 15.3011 14.372C15.4139 14.5009 15.546 14.5957 15.6966 14.6556C15.8269 14.7075 15.9627 14.7304 16.1033 14.7304C16.6204 14.7304 17.2031 14.4202 17.8122 14.0961C17.9317 14.0325 18.0531 13.9681 18.1758 13.9046C19.3389 13.3048 19.6252 11.8878 19.6908 11.0665L21.064 10.3475C21.67 10.0302 21.9598 9.32282 21.7505 8.67163Z" fill="#FFAA79"/>
</svg>
