<svg width="31" height="31" viewBox="0 0 31 31" fill="none" xmlns="http://www.w3.org/2000/svg">
<path d="M24.7968 25.1202C27.1046 22.8983 28.5175 19.9073 28.7679 16.7136C27.5348 15.959 26.1345 15.5206 24.6913 15.4373C23.248 15.354 21.8066 15.6284 20.4949 16.2361C22.4807 18.897 23.9407 21.9122 24.7968 25.1202ZM22.913 26.6337C22.1638 23.2867 20.7042 20.1397 18.6331 17.4057C16.9945 18.7481 15.8975 20.6383 15.5447 22.7269C15.192 24.8155 15.6075 26.9612 16.7143 28.7672C18.928 28.5929 21.061 27.8588 22.913 26.6337ZM14.2173 28.7299C13.2161 26.5323 12.969 24.0655 13.5145 21.713C14.0599 19.3605 15.3673 17.2541 17.2334 15.7213C16.7101 15.1464 16.1597 14.5968 15.5841 14.0742C14.0542 15.9354 11.9534 17.2405 9.60688 17.7873C7.26041 18.3341 4.79911 18.0922 2.60398 17.0991C2.92514 20.0733 4.25554 22.8477 6.3736 24.9603C8.48194 27.074 11.2496 28.4033 14.2173 28.7277V28.7299ZM2.56894 14.6086C4.37353 15.7055 6.51342 16.114 8.59516 15.759C10.6769 15.4041 12.5605 14.3096 13.8997 12.6767C11.172 10.6179 8.03524 9.16675 4.70016 8.42086C3.47753 10.2698 2.74423 12.3989 2.56894 14.6086ZM6.21589 6.53715C9.4115 7.39015 12.4159 8.84256 15.0693 10.8171C15.6759 9.5097 15.9512 8.07307 15.8709 6.63406C15.7907 5.19505 15.3574 3.79792 14.6094 2.56602C11.4203 2.81955 8.43443 4.23221 6.21589 6.53715ZM17.102 2.60325C18.4907 5.66757 18.3943 9.24006 16.8129 12.2321C17.6124 12.9403 18.3687 13.6959 19.0777 14.4947C20.5594 13.7154 22.1996 13.2852 23.873 13.237C25.5465 13.1888 27.2088 13.5238 28.7328 14.2166C28.4073 11.2493 27.0773 8.48251 24.9632 6.37506C22.8515 4.25664 20.0779 2.92549 17.1042 2.60325H17.102ZM26.5096 26.5089C25.0858 27.9327 23.3955 29.0622 21.5351 29.8327C19.6748 30.6033 17.6809 30.9999 15.6673 30.9999C13.6537 30.9999 11.6598 30.6033 9.7995 29.8327C7.93918 29.0622 6.24885 27.9327 4.82501 26.5089C3.40118 25.0851 2.27174 23.3947 1.50116 21.5344C0.730593 19.6741 0.333984 17.6802 0.333984 15.6666C0.333984 13.653 0.730593 11.6591 1.50116 9.79877C2.27174 7.93845 3.40118 6.24811 4.82501 4.82428C7.70057 1.94872 11.6007 0.333252 15.6673 0.333252C19.734 0.333252 23.6341 1.94872 26.5096 4.82428C29.3852 7.69984 31.0007 11.5999 31.0007 15.6666C31.0007 19.7332 29.3852 23.6333 26.5096 26.5089Z" fill="#818181"/>
</svg>
