<svg width="22" height="22" viewBox="0 0 22 22" fill="none" xmlns="http://www.w3.org/2000/svg">
<path d="M17.5494 17.7819C19.205 16.188 20.2186 14.0423 20.3982 11.7511C19.5136 11.2098 18.5091 10.8952 17.4737 10.8355C16.4383 10.7757 15.4042 10.9726 14.4633 11.4086C15.8878 13.3175 16.9353 15.4806 17.5494 17.7819ZM16.198 18.8677C15.6605 16.4666 14.6134 14.209 13.1276 12.2477C11.9521 13.2106 11.1651 14.5667 10.9121 16.065C10.659 17.5633 10.9571 19.1026 11.7511 20.3982C13.3392 20.2733 14.8694 19.7466 16.198 18.8677ZM9.95977 20.3715C9.24153 18.795 9.06428 17.0253 9.45558 15.3377C9.84687 13.65 10.7848 12.1389 12.1235 11.0393C11.7481 10.6268 11.3532 10.2325 10.9403 9.85763C9.84273 11.1929 8.33564 12.1291 6.6523 12.5214C4.96896 12.9137 3.20324 12.7401 1.62848 12.0277C1.85887 14.1613 2.81329 16.1517 4.33277 17.6672C5.84527 19.1836 7.83074 20.1372 9.95977 20.37V20.3715ZM1.60334 10.241C2.89793 11.0279 4.43307 11.321 5.92649 11.0663C7.41991 10.8117 8.77121 10.0265 9.73192 8.85511C7.77511 7.3781 5.52481 6.33707 3.13226 5.80198C2.25515 7.12843 1.72909 8.65581 1.60334 10.241ZM4.21963 4.45062C6.51213 5.06256 8.66748 6.10451 10.571 7.52103C11.0061 6.58311 11.2036 5.55248 11.1461 4.52014C11.0885 3.48781 10.7777 2.48552 10.241 1.60177C7.95321 1.78365 5.81119 2.79708 4.21963 4.45062ZM12.0292 1.62848C13.0255 3.82679 12.9563 6.38966 11.8218 8.53613C12.3954 9.0442 12.938 9.58624 13.4466 10.1593C14.5095 9.60024 15.6862 9.2916 16.8867 9.25701C18.0872 9.22242 19.2797 9.4628 20.3731 9.95977C20.1396 7.83109 19.1854 5.84621 17.6688 4.33434C16.1539 2.8146 14.1641 1.85965 12.0308 1.62848H12.0292ZM18.7782 18.7782C17.7567 19.7996 16.5441 20.6099 15.2095 21.1627C13.8749 21.7155 12.4445 22 11 22C9.55546 22 8.12506 21.7155 6.79048 21.1627C5.4559 20.6099 4.24327 19.7996 3.22183 18.7782C2.20038 17.7567 1.39013 16.5441 0.837325 15.2095C0.284523 13.8749 -1.07627e-08 12.4445 0 11C1.07627e-08 9.55546 0.284523 8.12506 0.837325 6.79048C1.39013 5.4559 2.20038 4.24327 3.22183 3.22183C5.28473 1.15892 8.08262 -2.17362e-08 11 0C13.9174 2.17362e-08 16.7153 1.15893 18.7782 3.22183C20.8411 5.28473 22 8.08262 22 11C22 13.9174 20.8411 16.7153 18.7782 18.7782Z" fill="#FFAA79"/>
</svg>
