<svg width="31" height="31" viewBox="0 0 31 31" fill="none" xmlns="http://www.w3.org/2000/svg">
<path d="M24.7963 25.1203C27.1041 22.8984 28.517 19.9074 28.7674 16.7136C27.5343 15.959 26.134 15.5206 24.6908 15.4373C23.2476 15.354 21.8061 15.6284 20.4944 16.2361C22.4802 18.897 23.9402 21.9123 24.7963 25.1203ZM22.9126 26.6338C22.1633 23.2868 20.7037 20.1398 18.6326 17.4058C16.9941 18.7481 15.897 20.6384 15.5443 22.727C15.1915 24.8156 15.607 26.9612 16.7138 28.7672C18.9275 28.593 21.0605 27.8589 22.9126 26.6338ZM14.2168 28.73C13.2156 26.5324 12.9686 24.0656 13.514 21.7131C14.0594 19.3606 15.3668 17.2542 17.2329 15.7214C16.7096 15.1465 16.1592 14.5968 15.5836 14.0743C14.0537 15.9355 11.9529 17.2406 9.60639 17.7874C7.25992 18.3342 4.79862 18.0923 2.6035 17.0991C2.92465 20.0734 4.25505 22.8478 6.37311 24.9604C8.48145 27.074 11.2491 28.4034 14.2168 28.7278V28.73ZM2.56845 14.6087C4.37304 15.7055 6.51293 16.114 8.59467 15.7591C10.6764 15.4042 12.56 14.3097 13.8992 12.6768C11.1715 10.6179 8.03475 9.16681 4.69968 8.42092C3.47704 10.2699 2.74374 12.399 2.56845 14.6087ZM6.21541 6.53721C9.41101 7.39021 12.4154 8.84262 15.0689 10.8172C15.6754 9.50976 15.9507 8.07313 15.8705 6.63412C15.7902 5.19511 15.357 3.79798 14.6089 2.56608C11.4198 2.81961 8.43394 4.23227 6.21541 6.53721ZM17.1015 2.60331C18.4902 5.66763 18.3938 9.24012 16.8124 12.2322C17.6119 12.9404 18.3682 13.6959 19.0772 14.4948C20.5589 13.7155 22.1991 13.2852 23.8726 13.237C25.546 13.1888 27.2083 13.5239 28.7324 14.2166C28.4068 11.2494 27.0768 8.48257 24.9627 6.37512C22.8511 4.2567 20.0774 2.92555 17.1037 2.60331H17.1015ZM26.5091 26.5089C25.0853 27.9328 23.395 29.0622 21.5346 29.8328C19.6743 30.6034 17.6804 31 15.6668 31C13.6532 31 11.6593 30.6034 9.79902 29.8328C7.93869 29.0622 6.24836 27.9328 4.82453 26.5089C3.40069 25.0851 2.27125 23.3948 1.50068 21.5345C0.730104 19.6741 0.333496 17.6802 0.333496 15.6666C0.333496 13.653 0.730104 11.6592 1.50068 9.79883C2.27125 7.93851 3.40069 6.24817 4.82453 4.82434C7.70008 1.94878 11.6002 0.333313 15.6668 0.333313C19.7335 0.333313 23.6336 1.94878 26.5091 4.82434C29.3847 7.6999 31.0002 11.6 31.0002 15.6666C31.0002 19.7333 29.3847 23.6334 26.5091 26.5089Z" fill="#E55807"/>
</svg>
