<svg width="18" height="22" viewBox="0 0 18 22" fill="none" xmlns="http://www.w3.org/2000/svg">
<path fill-rule="evenodd" clip-rule="evenodd" d="M6.43638 0.876953H3.86496V3.44838H0.0078125V7.30552H18.0078V3.44838H14.1507V0.876953H11.5792V3.44838H6.43638V0.876953ZM18.0078 21.4484V8.59124H0.0078125V21.4484H18.0078ZM7.88889 13.9286V13.7143C7.88889 13.2455 8.27778 12.8571 8.77778 12.8571H9.22222C9.70833 12.8571 10.1111 13.2455 10.1111 13.7143V13.8482C10.1111 14.1027 9.98611 14.3571 9.76389 14.5179L8.72222 15.308L8.55556 15.442V16.2857H9.44444V15.8571L10.3194 15.1875C10.75 14.8661 11 14.3705 11 13.8482V13.7143C11 12.7768 10.1944 12 9.22222 12H8.77778C7.79167 12 7 12.7768 7 13.7143V13.9286H7.88889ZM9.55556 18V16.9286H8.44444V18H9.55556Z" fill="#313A3E"/>
</svg>
