<svg width="26" height="24" viewBox="0 0 26 24" fill="none" xmlns="http://www.w3.org/2000/svg">
<path fill-rule="evenodd" clip-rule="evenodd" d="M9.43638 0.876953H6.86496V3.44838H3.00781V7.30552H21.0078V3.44838H17.1507V0.876953H14.5792V3.44838H9.43638V0.876953ZM21.0078 21.4484V8.59124H3.00781V21.4484H21.0078ZM10.8889 13.9286V13.7143C10.8889 13.2455 11.2778 12.8571 11.7778 12.8571H12.2222C12.7083 12.8571 13.1111 13.2455 13.1111 13.7143V13.8482C13.1111 14.1027 12.9861 14.3571 12.7639 14.5179L11.7222 15.308L11.5556 15.442V16.2857H12.4444V15.8571L13.3194 15.1875C13.75 14.8661 14 14.3705 14 13.8482V13.7143C14 12.7768 13.1944 12 12.2222 12H11.7778C10.7917 12 10 12.7768 10 13.7143V13.9286H10.8889ZM12.5556 18V16.9286H11.4444V18H12.5556Z" fill="#313A3E"/>
<circle cx="21" cy="6" r="5" fill="white"/>
<circle cx="21" cy="6" r="3.75" fill="#E5601A"/>
</svg>
