<svg width="24" height="24" viewBox="0 0 24 24" fill="none" xmlns="http://www.w3.org/2000/svg">
    <path d="M19 5H17.75C16.963 5 16.222 4.63 15.75 4C15.278 3.37 14.537 3 13.75 3H10.25C9.463 3 8.722 3.37 8.25 4C7.778 4.63 7.037 5 6.25 5H5C3.343 5 2 6.343 2 8V18C2 19.657 3.343 21 5 21H19C20.657 21 22 19.657 22 18V8C22 6.343 20.657 5 19 5Z" fill="#B3BBC4"/>
    <path d="M12 18C14.7614 18 17 15.7614 17 13C17 10.2386 14.7614 8 12 8C9.23858 8 7 10.2386 7 13C7 15.7614 9.23858 18 12 18Z" fill="#313A3E"/>
    <path d="M19 9C19.5523 9 20 8.55228 20 8C20 7.44772 19.5523 7 19 7C18.4477 7 18 7.44772 18 8C18 8.55228 18.4477 9 19 9Z" fill="#313A3E"/>
</svg>
