<svg width="28" height="28" viewBox="0 0 28 28" fill="none" xmlns="http://www.w3.org/2000/svg">
<path d="M13.9998 6.00002C13.6462 6.00002 13.3071 6.1405 13.057 6.39054C12.807 6.64059 12.6665 6.97973 12.6665 7.33335V20.6667C12.6665 21.0203 12.807 21.3594 13.057 21.6095C13.3071 21.8595 13.6462 22 13.9998 22C14.3535 22 14.6926 21.8595 14.9426 21.6095C15.1927 21.3594 15.3332 21.0203 15.3332 20.6667V7.33335C15.3332 6.97973 15.1927 6.64059 14.9426 6.39054C14.6926 6.1405 14.3535 6.00002 13.9998 6.00002ZM7.33317 14C6.97955 14 6.64041 14.1405 6.39036 14.3905C6.14031 14.6406 5.99984 14.9797 5.99984 15.3334V20.6667C5.99984 21.0203 6.14031 21.3594 6.39036 21.6095C6.64041 21.8595 6.97955 22 7.33317 22C7.68679 22 8.02593 21.8595 8.27598 21.6095C8.52603 21.3594 8.6665 21.0203 8.6665 20.6667V15.3334C8.6665 14.9797 8.52603 14.6406 8.27598 14.3905C8.02593 14.1405 7.68679 14 7.33317 14ZM20.6665 11.3334C20.3129 11.3334 19.9737 11.4738 19.7237 11.7239C19.4736 11.9739 19.3332 12.3131 19.3332 12.6667V20.6667C19.3332 21.0203 19.4736 21.3594 19.7237 21.6095C19.9737 21.8595 20.3129 22 20.6665 22C21.0201 22 21.3593 21.8595 21.6093 21.6095C21.8594 21.3594 21.9998 21.0203 21.9998 20.6667V12.6667C21.9998 12.3131 21.8594 11.9739 21.6093 11.7239C21.3593 11.4738 21.0201 11.3334 20.6665 11.3334ZM23.3332 0.666687H4.6665C3.60564 0.666687 2.58822 1.08811 1.83808 1.83826C1.08793 2.58841 0.666504 3.60582 0.666504 4.66669V23.3334C0.666504 24.3942 1.08793 25.4116 1.83808 26.1618C2.58822 26.9119 3.60564 27.3334 4.6665 27.3334H23.3332C24.394 27.3334 25.4115 26.9119 26.1616 26.1618C26.9117 25.4116 27.3332 24.3942 27.3332 23.3334V4.66669C27.3332 3.60582 26.9117 2.58841 26.1616 1.83826C25.4115 1.08811 24.394 0.666687 23.3332 0.666687ZM24.6665 23.3334C24.6665 23.687 24.526 24.0261 24.276 24.2762C24.0259 24.5262 23.6868 24.6667 23.3332 24.6667H4.6665C4.31288 24.6667 3.97374 24.5262 3.7237 24.2762C3.47365 24.0261 3.33317 23.687 3.33317 23.3334V4.66669C3.33317 4.31306 3.47365 3.97393 3.7237 3.72388C3.97374 3.47383 4.31288 3.33335 4.6665 3.33335H23.3332C23.6868 3.33335 24.0259 3.47383 24.276 3.72388C24.526 3.97393 24.6665 4.31306 24.6665 4.66669V23.3334Z" fill="#818181"/>
</svg>
