<svg width="25" height="26" viewBox="0 0 25 26" fill="none" xmlns="http://www.w3.org/2000/svg">
<path d="M9.82011 11.7991C9.39067 12.252 9.14945 12.8658 9.14941 13.5057V16.9004H12.3934C13.0012 16.9004 13.585 16.646 14.0154 16.1928L23.5787 6.11754C23.7917 5.89336 23.9606 5.6272 24.0758 5.33426C24.1911 5.04133 24.2504 4.72736 24.2504 4.41028C24.2504 4.0932 24.1911 3.77923 24.0758 3.4863C23.9606 3.19336 23.7917 2.9272 23.5787 2.70302L22.6337 1.70795C22.4208 1.48352 22.1679 1.30547 21.8896 1.184C21.6113 1.06252 21.313 1 21.0117 1C20.7104 1 20.4121 1.06252 20.1338 1.184C19.8555 1.30547 19.6027 1.48352 19.3897 1.70795L9.82011 11.7991Z" stroke="#FFAA79" stroke-width="1.5" stroke-linecap="round" stroke-linejoin="round"/>
<path d="M24.2496 12.9252C24.2496 18.5471 24.2496 21.3574 22.5911 23.1038C20.9326 24.8501 18.2625 24.8501 12.9246 24.8501C7.5855 24.8501 4.91657 24.8501 3.25809 23.1038C1.59961 21.3574 1.59961 18.5458 1.59961 12.9252C1.59961 7.30321 1.59961 4.49289 3.25809 2.74654C4.91657 1.0002 7.58676 1.0002 12.9246 1.0002" stroke="#FFAA79" stroke-width="1.5" stroke-linecap="round" stroke-linejoin="round"/>
</svg>
