<svg width="28" height="26" viewBox="0 0 28 26" fill="none" xmlns="http://www.w3.org/2000/svg">
<path d="M9.45994 10.936C6.46385 10.936 4.02637 8.4985 4.02637 5.50248C4.02637 2.50645 6.46385 0.0689697 9.45994 0.0689697C12.456 0.0689697 14.8934 2.50645 14.8934 5.50248C14.8934 8.4985 12.456 10.936 9.45994 10.936ZM9.45994 1.35426C7.17259 1.35426 5.31172 3.21513 5.31172 5.50241C5.31172 7.7897 7.17259 9.65057 9.45994 9.65057C11.7472 9.65057 13.6081 7.7897 13.6081 5.50241C13.6081 3.21513 11.7472 1.35426 9.45994 1.35426Z" fill="#FFAA79"/>
<path d="M24.859 20.2588H18.2436C17.8887 20.2588 17.6009 19.9711 17.6009 19.6162V19.0765C17.6009 16.6811 16.5517 14.4172 14.7222 12.8657C14.4804 12.6607 14.4242 12.31 14.5898 12.0397C15.885 9.92629 18.1361 8.66452 20.6113 8.66452C24.5033 8.66452 27.6695 11.8308 27.6695 15.7226V17.0187C27.6695 18.6061 26.5358 19.9645 24.974 20.2485C24.936 20.2554 24.8975 20.2588 24.859 20.2588ZM18.8857 18.9735H24.797C25.7199 18.7801 26.3841 17.9666 26.3841 17.0187V15.7226C26.3841 12.5395 23.7944 9.94987 20.6113 9.94987C18.7645 9.94987 17.0702 10.8088 15.9826 12.2722C17.8102 14.0236 18.8581 16.4306 18.8857 18.9735Z" fill="#FFAA79"/>
<path d="M15.2754 25.0497H3.64473C3.60617 25.0497 3.56768 25.0463 3.52976 25.0394C1.5043 24.6711 0.0341797 22.9096 0.0341797 20.8509V19.0766C0.0341797 13.8791 4.2626 9.65071 9.46012 9.65071C11.6902 9.65071 13.8542 10.4444 15.5533 11.8855C17.6713 13.6818 18.886 16.3028 18.886 19.0766V20.8509C18.886 22.9096 17.4159 24.6711 15.3904 25.0394C15.3525 25.0463 15.314 25.0497 15.2754 25.0497ZM3.70553 23.7644H15.2147C16.6005 23.4861 17.6006 22.2696 17.6006 20.8509V19.0766C17.6006 16.6811 16.5514 14.4173 14.7219 12.8658C13.2547 11.6213 11.386 10.9361 9.46012 10.9361C4.97141 10.936 1.31953 14.5878 1.31953 19.0765V20.8508C1.31953 22.2696 2.31966 23.4861 3.70553 23.7644Z" fill="#FFAA79"/>
<path d="M20.6117 9.94993C18.3278 9.94993 16.4697 8.09182 16.4697 5.80788C16.4697 3.52393 18.3278 1.66589 20.6117 1.66589C22.8956 1.66589 24.7537 3.524 24.7537 5.80788C24.7537 8.09176 22.8956 9.94993 20.6117 9.94993ZM20.6117 2.95125C19.0365 2.95125 17.7551 4.23274 17.7551 5.80788C17.7551 7.38308 19.0365 8.66457 20.6117 8.66457C22.1869 8.66457 23.4683 7.38308 23.4683 5.80788C23.4683 4.23274 22.1869 2.95125 20.6117 2.95125Z" fill="#FFAA79"/>
</svg>
