
<svg width="17" height="17" viewBox="0 0 17 17" fill="none" xmlns="http://www.w3.org/2000/svg">
<path d="M16.8347 6.83528H16.15V6.8H8.5V10.2H13.3038C12.603 12.1792 10.7198 13.6 8.5 13.6C5.68353 13.6 3.4 11.3165 3.4 8.5C3.4 5.68353 5.68353 3.4 8.5 3.4C9.80008 3.4 10.9829 3.89045 11.8834 4.69158L14.2877 2.28735C12.7696 0.872525 10.7389 0 8.5 0C3.80588 0 0 3.80588 0 8.5C0 13.1941 3.80588 17 8.5 17C13.1941 17 17 13.1941 17 8.5C17 7.93008 16.9414 7.37375 16.8347 6.83528Z" fill="#FFC107"/>
<path d="M0.980469 4.54368L3.77314 6.59175C4.52879 4.7209 6.35884 3.4 8.50042 3.4C9.80049 3.4 10.9833 3.89045 11.8838 4.69158L14.2881 2.28735C12.77 0.872525 10.7393 0 8.50042 0C5.23557 0 2.40422 1.84323 0.980469 4.54368Z" fill="#FF3D00"/>
<path d="M8.49974 16.9999C10.6953 16.9999 12.6902 16.1597 14.1986 14.7933L11.5678 12.5672C10.6857 13.238 9.60791 13.6008 8.49974 13.5999C6.28889 13.5999 4.41167 12.1902 3.70447 10.2229L0.932617 12.3585C2.33937 15.1112 5.19622 16.9999 8.49974 16.9999Z" fill="#4CAF50"/>
<path d="M16.8347 6.8352H16.15V6.79993H8.5V10.1999H13.3038C12.9685 11.1419 12.3647 11.965 11.5668 12.5676L11.5681 12.5668L14.1988 14.7929C14.0127 14.9621 17 12.7499 17 8.49993C17 7.93 16.9413 7.37368 16.8347 6.8352Z" fill="#1976D2"/>
</svg>
