<svg width="17" height="14" viewBox="0 0 17 14" fill="none" xmlns="http://www.w3.org/2000/svg">
<path d="M2.4375 3.875C2.4375 2.73242 3.04688 1.66602 4.0625 1.08203C5.05273 0.498047 6.29688 0.498047 7.3125 1.08203C8.30273 1.66602 8.9375 2.73242 8.9375 3.875C8.9375 5.04297 8.30273 6.10938 7.3125 6.69336C6.29688 7.27734 5.05273 7.27734 4.0625 6.69336C3.04688 6.10938 2.4375 5.04297 2.4375 3.875ZM9.75 8.34375L11.375 13.625H0L1.625 8.34375H9.75ZM16.25 13.625H12.2129L12.1367 13.3965L10.7148 8.75H14.625L16.25 13.625ZM10.9688 7.125C10.1816 7.125 9.4707 6.82031 8.9375 6.3125C9.44531 5.62695 9.75 4.78906 9.75 3.875C9.75 3.21484 9.57227 2.55469 9.26758 1.99609C9.75 1.66602 10.334 1.4375 10.9688 1.4375C12.5176 1.4375 13.8125 2.73242 13.8125 4.28125C13.8125 5.85547 12.5176 7.125 10.9688 7.125Z" fill="#31393E"/>
</svg>
