<svg width="17" height="18" viewBox="0 0 17 18" fill="none" xmlns="http://www.w3.org/2000/svg">
    <path d="M13.8125 7.03125C13.8125 8.55859 13.3145 9.98633 12.4844 11.1152L16.1367 14.8008L16.9004 15.5312L15.4062 17.0586L14.6426 16.2949L10.957 12.6094C9.82812 13.4727 8.40039 13.9375 6.90625 13.9375C3.08789 13.9375 0 10.8496 0 7.03125C0 3.24609 3.08789 0.125 6.90625 0.125C10.6914 0.125 13.8125 3.24609 13.8125 7.03125ZM6.90625 11.8125C8.59961 11.8125 10.1602 10.916 11.0234 9.42188C11.8867 7.96094 11.8867 6.13477 11.0234 4.64062C10.1602 3.17969 8.59961 2.25 6.90625 2.25C5.17969 2.25 3.61914 3.17969 2.75586 4.64062C1.89258 6.13477 1.89258 7.96094 2.75586 9.42188C3.61914 10.916 5.17969 11.8125 6.90625 11.8125Z" fill="#8DA3BC"/>
</svg>
