<svg width="10" height="12" viewBox="0 0 10 12" fill="none" xmlns="http://www.w3.org/2000/svg">
    <path d="M5.01041 0L5.2395 0.117188L9.57131 1.99219L9.96701 2.17969L9.98783 2.64844C10.0503 3.82031 9.88371 5.625 9.21727 7.35938C8.53001 9.11719 7.3221 10.875 5.26033 11.8828L5.01041 12L4.73967 11.8828C2.6779 10.875 1.46999 9.14062 0.782728 7.35938C0.116295 5.625 -0.0503133 3.82031 0.0121648 2.64844L0.0329908 2.17969L0.428685 1.99219L4.7605 0.117188L5.01041 0ZM5.51024 3H4.51059V6.75H5.51024V3ZM4.51059 7.5V8.625H5.51024V7.5H4.51059Z" fill="#FFCC00"/>
</svg>
