<svg width="18" height="18" viewBox="0 0 18 18" fill="none" xmlns="http://www.w3.org/2000/svg">
    <path d="M9.01758 18C5.7832 18 2.83008 16.3125 1.21289 13.5C-0.404297 10.7227 -0.404297 7.3125 1.21289 4.5C2.83008 1.72266 5.7832 0 9.01758 0C12.2168 0 15.1699 1.72266 16.7871 4.5C18.4043 7.3125 18.4043 10.7227 16.7871 13.5C15.1699 16.3125 12.2168 18 9.01758 18ZM12.4277 6.75L11.2676 5.58984L9.01758 7.83984L6.76758 5.58984L5.57227 6.75L7.82227 9L5.57227 11.25L6.76758 12.4453L9.01758 10.1953L11.2676 12.4453L12.4277 11.25L10.1777 9L12.4277 6.75Z" fill="#677986"/>
</svg>
