<svg width="36" height="36" viewBox="0 0 36 36" fill="none" xmlns="http://www.w3.org/2000/svg">
    <path d="M36 18C36 15.6162 34.0808 13.6768 31.6768 13.6768H22.303V4.32323C22.303 1.91919 20.3838 0 18 0C15.6162 0 13.6768 1.91919 13.6768 4.32323V13.6768H4.30303C1.91919 13.6768 0 15.6162 0 18C0 20.3838 1.91919 22.3232 4.30303 22.3232H13.6768V31.697C13.6768 34.0808 15.6162 36 18 36C20.3838 36 22.303 34.0808 22.303 31.697V22.3232H31.6768C34.0808 22.3232 36 20.3838 36 18Z" fill="#E5601A"/>
    <path d="M36 18C36 15.6162 34.0808 13.6768 31.6768 13.6768H22.303V4.32323C22.303 1.91919 20.3838 0 18 0C15.6162 0 13.6768 1.91919 13.6768 4.32323V13.6768H4.30303C1.91919 13.6768 0 15.6162 0 18C0 20.3838 1.91919 22.3232 4.30303 22.3232H13.6768V31.697C13.6768 34.0808 15.6162 36 18 36C20.3838 36 22.303 34.0808 22.303 31.697V22.3232H31.6768C34.0808 22.3232 36 20.3838 36 18Z" fill="url(#paint0_linear_458_13385)"/>
    <defs>
        <linearGradient id="paint0_linear_458_13385" x1="5.53073" y1="51.3333" x2="53.4539" y2="40.537" gradientUnits="userSpaceOnUse">
            <stop stop-color="#E5601A"/>
            <stop offset="0.990457" stop-color="#FF8A4C"/>
        </linearGradient>
    </defs>
</svg>

