<svg width="24" height="24" viewBox="0 0 24 24" fill="none" xmlns="http://www.w3.org/2000/svg">
<rect width="24" height="24" rx="4.36364" fill="#FD8F51"/>
<path d="M4.4229 13.3897C4.79865 13.3814 5.13953 13.5105 5.44278 13.7765C5.70302 13.4709 5.99213 13.1708 6.31369 12.8838C6.19806 12.504 6.11803 12.1488 6.06464 11.8217C5.86003 10.5663 6.00647 9.56557 6.18972 8.90019C4.39198 9.96096 3.14939 11.8609 3 14.0617C3.378 13.7286 3.88067 13.4057 4.4229 13.3897Z" fill="white"/>
<path d="M10.231 9.75544C9.98216 10.0539 9.90802 10.4451 10.0024 10.9425C11.4593 10.5804 13.0882 10.5498 14.8758 10.852C14.378 10.1204 13.7342 9.49683 12.9877 9.02009C12.2344 8.9844 10.8061 9.06514 10.231 9.75544Z" fill="white"/>
<path d="M6.69244 11.7688C6.72875 11.9825 6.77848 12.2098 6.84244 12.4484C7.00495 12.3249 7.17294 12.2044 7.34969 12.0891C7.98365 11.6758 8.66632 11.3514 9.39546 11.1155C9.24851 10.4035 9.36709 9.81167 9.74986 9.35283C10.2419 8.76321 11.0862 8.52443 11.8304 8.43494C11.1044 8.15498 10.3163 8 9.49156 8C8.60652 8 7.76297 8.17746 6.99366 8.49749C6.80248 8.94707 6.41299 10.1234 6.69244 11.7688Z" fill="white"/>
<path d="M10.1816 11.5458C11.1448 13.9176 14.757 15.1484 15.9323 15.4451C15.9764 15.1391 16.0004 14.8266 16.0004 14.5084C16.0004 13.4505 15.7464 12.4525 15.2984 11.5693C13.4005 11.184 11.6891 11.1764 10.1816 11.5458Z" fill="white"/>
<path d="M6.53922 13.5327C6.29251 13.7686 6.06685 14.0128 5.86133 14.2608C6.98931 15.8683 6.77423 18.0375 6.31224 20.187C7.25239 20.7147 8.33635 21.0168 9.49128 21.0168C10.492 21.0168 11.4398 20.7903 12.2869 20.3869C8.88651 17.8141 7.27253 15.4237 6.53922 13.5327Z" fill="white"/>
<path d="M9.57422 11.7176C8.90223 11.9361 8.27438 12.2353 7.69228 12.6149C7.46245 12.7647 7.24737 12.9242 7.04297 13.0895C7.70896 14.9522 9.29833 17.3924 12.8936 20.0571C14.3317 19.1736 15.399 17.7469 15.8117 16.0628C14.3884 15.7221 10.5867 14.3079 9.57422 11.7176Z" fill="white"/>
<path d="M3 14.955C3.05247 15.729 3.2401 16.4657 3.53989 17.1421C3.79229 16.4112 4.25571 15.3363 5.05157 14.2675C4.8617 14.0926 4.66045 14.0084 4.44161 14.0171C3.89521 14.0333 3.31322 14.585 3 14.955Z" fill="white"/>
<path d="M5.45618 14.7868C4.5207 16.0989 4.09928 17.4008 3.95508 17.9298C4.41829 18.6776 5.02906 19.324 5.74621 19.8298C6.12837 17.9758 6.28925 16.1383 5.45618 14.7868Z" fill="white"/>
<path fill-rule="evenodd" clip-rule="evenodd" d="M18.9405 4.19649L20.2433 5.22267C20.4165 5.35943 20.697 5.35943 20.8701 5.22267C21.0433 5.08591 21.0433 4.86443 20.8701 4.72767L18.8125 3.1024C18.6393 2.96587 18.3586 2.96587 18.1854 3.1024C17.1751 3.90056 16.2868 4.60211 16.1299 4.7258C15.9567 4.86256 15.9567 5.08428 16.1299 5.22104C16.303 5.35757 16.5838 5.35757 16.7569 5.22104L18.0539 4.19649V9.64993C18.0539 9.74281 18.1006 9.83197 18.184 9.89755C18.267 9.96313 18.3796 10 18.4972 10C18.6148 10 18.7277 9.96313 18.8107 9.89755C18.8938 9.83197 18.9405 9.74281 18.9405 9.64993V4.19649Z" fill="white"/>
</svg>
