<svg width="24" height="24" viewBox="0 0 24 24" fill="none" xmlns="http://www.w3.org/2000/svg">
<rect width="24" height="24" rx="4.36364" fill="white"/>
<path d="M4.4229 13.3899C4.79865 13.3816 5.13953 13.5107 5.44278 13.7767C5.70302 13.4711 5.99213 13.171 6.31369 12.884C6.19806 12.5042 6.11803 12.149 6.06464 11.8219C5.86003 10.5665 6.00647 9.56577 6.18972 8.90039C4.39198 9.96116 3.14939 11.8611 3 14.0618C3.378 13.7288 3.88067 13.4059 4.4229 13.3899Z" fill="#FD8F51"/>
<path d="M10.231 9.7555C9.98216 10.054 9.90802 10.4452 10.0024 10.9426C11.4593 10.5804 13.0882 10.5498 14.8758 10.8521C14.378 10.1205 13.7342 9.49689 12.9877 9.02015C12.2344 8.98446 10.8061 9.0652 10.231 9.7555Z" fill="#FD8F51"/>
<path d="M6.69147 11.7688C6.72777 11.9825 6.7775 12.2098 6.84146 12.4484C7.00397 12.3249 7.17197 12.2044 7.34871 12.0891C7.98267 11.6758 8.66534 11.3514 9.39448 11.1155C9.24753 10.4035 9.36611 9.81167 9.74888 9.35283C10.2409 8.76321 11.0852 8.52443 11.8294 8.43494C11.1034 8.15498 10.3153 8 9.49058 8C8.60554 8 7.76199 8.17746 6.99268 8.49749C6.8015 8.94707 6.41201 10.1234 6.69147 11.7688Z" fill="#FD8F51"/>
<path d="M10.1816 11.5457C11.1448 13.9175 14.757 15.1483 15.9323 15.4451C15.9764 15.1391 16.0004 14.8266 16.0004 14.5084C16.0004 13.4505 15.7464 12.4524 15.2984 11.5693C13.4005 11.184 11.6891 11.1764 10.1816 11.5457Z" fill="#FD8F51"/>
<path d="M6.53922 13.5327C6.29251 13.7685 6.06685 14.0128 5.86133 14.2607C6.98931 15.8683 6.77423 18.0374 6.31224 20.1869C7.25239 20.7146 8.33635 21.0168 9.49128 21.0168C10.492 21.0168 11.4398 20.7903 12.2869 20.3869C8.88651 17.8141 7.27253 15.4237 6.53922 13.5327Z" fill="#FD8F51"/>
<path d="M9.57422 11.7178C8.90223 11.9362 8.27438 12.2355 7.69228 12.615C7.46245 12.7648 7.24737 12.9244 7.04297 13.0896C7.70896 14.9523 9.29833 17.3926 12.8936 20.0573C14.3317 19.1737 15.399 17.7471 15.8117 16.0629C14.3884 15.7223 10.5867 14.308 9.57422 11.7178Z" fill="#FD8F51"/>
<path d="M3 14.9551C3.05247 15.7291 3.2401 16.4658 3.53989 17.1422C3.79229 16.4113 4.25571 15.3364 5.05157 14.2676C4.8617 14.0927 4.66045 14.0085 4.44161 14.0172C3.89521 14.0334 3.31322 14.5851 3 14.9551Z" fill="#FD8F51"/>
<path d="M5.45618 14.7866C4.5207 16.0987 4.09928 17.4006 3.95508 17.9296C4.41829 18.6774 5.02906 19.3238 5.74621 19.8296C6.12837 17.9756 6.28925 16.1381 5.45618 14.7866Z" fill="#FD8F51"/>
<path fill-rule="evenodd" clip-rule="evenodd" d="M18.9405 4.19649L20.2433 5.22267C20.4165 5.35943 20.697 5.35943 20.8701 5.22267C21.0433 5.08591 21.0433 4.86443 20.8701 4.72767L18.8125 3.1024C18.6393 2.96587 18.3586 2.96587 18.1854 3.1024C17.1751 3.90056 16.2868 4.60211 16.1299 4.7258C15.9567 4.86256 15.9567 5.08428 16.1299 5.22104C16.303 5.35757 16.5838 5.35757 16.7569 5.22104L18.0539 4.19649V9.64993C18.0539 9.74281 18.1006 9.83197 18.184 9.89755C18.267 9.96313 18.3796 10 18.4972 10C18.6148 10 18.7277 9.96313 18.8107 9.89755C18.8938 9.83197 18.9405 9.74281 18.9405 9.64993V4.19649Z" fill="#FD8F51"/>
</svg>
