<svg width="24" height="24" viewBox="0 0 24 24" fill="none" xmlns="http://www.w3.org/2000/svg">
    <path d="M17 18H4C2.895 18 2 17.105 2 16V6C2 4.895 2.895 4 4 4H17C18.105 4 19 4.895 19 6V16C19 17.105 18.105 18 17 18Z" fill="#BFC1C3"/>
    <path d="M14.5 9C15.3284 9 16 8.32843 16 7.5C16 6.67157 15.3284 6 14.5 6C13.6716 6 13 6.67157 13 7.5C13 8.32843 13.6716 9 14.5 9Z" fill="#313A3E"/>
    <path d="M4 15.125C4 15.604 4.364 16 4.812 16H16.187C16.636 16 17 15.611 17 15.125C17 13.932 15.829 12 14.969 12C14.073 12 13.586 13.001 12 13.001C10.015 13.001 8.875 9 7.25 9C5.625 9 4 12.817 4 15.125Z" fill="#313A3E"/>
    <path d="M20 6H19V16C19 17.105 18.105 18 17 18H5C5 19.105 5.895 20 7 20H20C21.105 20 22 19.105 22 18V8C22 6.895 21.105 6 20 6Z" fill="#313A3E"/>
</svg>
