<svg width="24" height="24" viewBox="0 0 24 24" fill="none" xmlns="http://www.w3.org/2000/svg">
    <path d="M23 3V17.1429H4.66667V3H23ZM16.0868 7.33929L15.3611 6.21429L14.5972 7.33929L12.4201 10.5938L11.7326 9.83036L11.0833 9.02679L10.3958 9.83036L7.95139 12.7232L7.72222 13.0045V14.6518H19.9444V13.0446L19.7535 12.8036L16.0868 7.33929ZM8.33333 6.85714C8.33333 7.58036 8.86806 8.14286 9.55556 8.14286C10.2049 8.14286 10.7778 7.58036 10.7778 6.85714C10.7778 6.17411 10.2049 5.57143 9.55556 5.57143C8.86806 5.57143 8.33333 6.17411 8.33333 6.85714ZM2.83333 19.0714H19.3333V21H1V5.57143H2.83333V19.0714Z" fill="#313A3E"/>
</svg>


