<svg width="196" height="49" viewBox="0 0 196 49" fill="none" xmlns="http://www.w3.org/2000/svg">
    <path d="M54.1396 32.5023C54.9181 32.963 55.9268 33.3173 57.1654 33.5654C58.4395 33.778 59.7489 33.9198 61.0938 33.9907C62.4386 34.0261 63.6065 34.0438 64.5974 34.0438C64.9867 34.0438 65.4291 34.0438 65.9245 34.0438C66.4554 34.0084 66.9155 33.9907 67.3048 33.9907C68.5788 33.9552 69.6936 33.8135 70.6492 33.5654C71.6047 33.2819 72.3302 32.8212 72.8257 32.1834C73.3565 31.5455 73.6219 30.6418 73.6219 29.4724C73.6219 28.0195 73.2327 27.0804 72.4541 26.6552C71.7109 26.2299 70.6138 26.0173 69.1628 26.0173C68.6673 26.0173 68.1364 26.0173 67.5702 26.0173C67.0039 26.0173 66.3492 26.0173 65.606 26.0173C64.8982 26.0173 64.0666 26.0173 63.111 26.0173C62.0493 26.0173 60.9876 25.9642 59.9259 25.8578C58.8642 25.7515 57.9086 25.5212 57.0593 25.1668C56.2099 24.777 55.5198 24.1746 54.9889 23.3595C54.4581 22.509 54.1926 21.3219 54.1926 19.7981C54.1926 18.0263 54.5112 16.6265 55.1482 15.5988C55.7852 14.5711 56.67 13.827 57.8025 13.3663C58.9703 12.8702 60.2975 12.5512 61.7839 12.4095C63.3057 12.2677 64.969 12.1969 66.7739 12.1969C67.8356 12.1969 69.0035 12.2146 70.2776 12.25C71.5516 12.2855 72.7726 12.3741 73.9405 12.5158C75.1083 12.6221 76.0108 12.817 76.6478 13.1005C77.391 13.1714 77.9573 13.4017 78.3466 13.7915C78.7712 14.1459 78.9836 14.6066 78.9836 15.1736C78.9836 15.2799 78.9836 15.4571 78.9836 15.7051C78.9836 15.9532 78.9836 16.1835 78.9836 16.3962C78.9836 16.6088 78.9836 16.7682 78.9836 16.8746C78.7005 16.5202 78.1696 16.2544 77.391 16.0772C76.6478 15.8646 75.7985 15.7051 74.8429 15.5988C73.8874 15.4925 72.9495 15.4216 72.0294 15.3862C71.1446 15.3153 70.3837 15.2799 69.7467 15.2799H66.1369C64.9336 15.2799 63.8542 15.3862 62.8987 15.5988C61.9431 15.776 61.1822 16.1658 60.616 16.7682C60.0497 17.3352 59.7666 18.2212 59.7666 19.426C59.7666 20.3474 59.9436 21.0561 60.2975 21.5522C60.6868 22.0129 61.2353 22.3319 61.9431 22.509C62.6863 22.6508 63.5534 22.7217 64.5443 22.7217C66.1723 22.7217 67.5525 22.7217 68.685 22.7217C69.8175 22.7217 70.6845 22.7217 71.2862 22.7217C72.8788 22.7217 74.2767 22.8634 75.4799 23.1469C76.7186 23.395 77.6741 23.9797 78.3466 24.901C79.0544 25.8224 79.4083 27.2753 79.4083 29.2598C79.4083 31.138 79.0013 32.644 78.1873 33.778C77.3733 34.8766 76.2585 35.6739 74.8429 36.17C73.4273 36.6307 71.7993 36.9142 69.959 37.0205C68.8619 37.0914 67.8002 37.1268 66.7739 37.1268C65.7476 37.1623 64.6682 37.1623 63.5357 37.1268C62.5094 37.1268 61.4477 37.0914 60.3506 37.0205C59.2535 36.9496 58.2271 36.8256 57.2716 36.6484C56.3515 36.4358 55.5906 36.1523 54.9889 35.7979C54.4227 35.4436 54.1396 34.9652 54.1396 34.3627V32.5023Z" fill="#E5601A"/>
    <path d="M85.5322 36.861C85.5322 33.3173 85.5322 29.7914 85.5322 26.2831C85.5322 22.7394 85.5322 19.1957 85.5322 15.652C85.5322 14.4471 85.7445 13.6143 86.1692 13.1537C86.6293 12.693 87.4256 12.4449 88.5581 12.4095C90.0798 12.3741 91.7255 12.3563 93.495 12.3563C95.2645 12.3563 97.0164 12.3563 98.7505 12.3563C100.52 12.3563 102.113 12.3918 103.528 12.4626C105.05 12.4981 106.342 12.7816 107.403 13.3131C108.501 13.8093 109.332 14.5889 109.898 15.652C110.5 16.6797 110.801 18.0263 110.801 19.6918C110.801 21.57 110.482 23.1115 109.845 24.3163C109.208 25.5212 108.306 26.4071 107.138 26.9741C106.006 27.5057 104.661 27.7714 103.103 27.7714C101.192 27.736 99.2459 27.7183 97.2641 27.7183C95.2822 27.7183 93.3358 27.7183 91.4247 27.7183C91.4247 26.9032 91.4247 26.3008 91.4247 25.911C91.4601 25.4858 91.5485 25.2023 91.6901 25.0605C91.8317 24.8833 92.0794 24.7947 92.4333 24.7947C93.0703 24.7947 93.8666 24.7947 94.8222 24.7947C95.8131 24.7947 96.8571 24.7947 97.9542 24.7947C99.0513 24.7947 100.06 24.7947 100.98 24.7947C101.759 24.7947 102.466 24.653 103.103 24.3695C103.741 24.0506 104.254 23.519 104.643 22.7748C105.032 22.0306 105.227 21.0207 105.227 19.745C105.227 18.4338 104.961 17.4238 104.431 16.7151C103.935 15.9709 103.086 15.5634 101.883 15.4925C100.821 15.3862 99.6883 15.333 98.4851 15.333C97.2818 15.333 96.1316 15.3508 95.0345 15.3862C93.9374 15.3862 92.9818 15.4039 92.1679 15.4394C91.9909 15.4394 91.7432 15.5279 91.4247 15.7051C91.1416 15.8469 91 16.1481 91 16.6088C91 19.9753 91 23.3418 91 26.7083C91 30.0749 91 33.4591 91 36.861H85.5322Z" fill="#E5601A"/>
    <path d="M122.058 12.4095V33.8312H138.196V36.861H116.643V14.4826C116.643 14.0219 116.661 13.6498 116.696 13.3663C116.732 13.0474 116.891 12.817 117.174 12.6753C117.457 12.4981 117.9 12.4095 118.501 12.4095H122.058Z" fill="#E5601A"/>
    <path d="M139.427 36.861L146.859 16.1835C147.354 14.9078 148.027 13.9333 148.876 13.26C149.725 12.5512 151.106 12.1969 153.017 12.1969C154.715 12.1969 156.007 12.5158 156.892 13.1537C157.812 13.7915 158.52 14.8015 159.015 16.1835L166.607 36.861H160.714L158.431 30.4824H145.85L143.621 36.861H139.427ZM146.7 28.1967H157.423L154.078 18.4692C153.937 18.0085 153.742 17.601 153.495 17.2466C153.282 16.8923 152.804 16.7151 152.061 16.7151C151.283 16.7151 150.769 16.91 150.522 17.2998C150.274 17.6542 150.079 18.044 149.938 18.4692L146.7 28.1967Z" fill="#E5601A"/>
    <path d="M164.528 12.4095H190.221V15.4394H180.135V34.788C180.135 35.5676 180.011 36.1169 179.764 36.4358C179.551 36.7193 179.038 36.861 178.224 36.861H174.667V15.4394H164.528V12.4095Z" fill="#E5601A"/>
    <path d="M34.667 22.573C34.493 22.4838 34.3135 22.3953 34.1286 22.3078C33.5481 22.033 32.8957 22.47 32.863 23.107C32.8564 23.2353 32.8487 23.3641 32.8396 23.4933C32.7107 25.3225 32.3672 27.1208 31.8122 28.8852C31.6749 29.3219 31.8774 29.791 32.2735 30.0245C33.6922 30.8608 34.5736 31.9832 34.9007 33.3759C35.1176 34.3003 35.0604 35.2633 34.8365 36.206C34.6204 37.116 35.6276 37.9641 36.3156 37.3225C37.0489 36.6385 37.7346 35.8851 38.3625 35.0627C39.7798 33.2065 40.7781 31.1669 41.3766 29.055C41.4406 28.829 41.4089 28.5883 41.284 28.3895C40.4614 27.0802 38.4868 24.5312 34.667 22.573Z" fill="#E5601A"/>
    <path d="M28.831 31.6154C29.0711 31.1224 28.7881 30.5435 28.2428 30.459C22.085 29.5054 14.7752 33.9722 11.6207 36.2878C11.188 36.6054 11.1531 37.2242 11.5509 37.5811C11.9493 37.9386 12.3668 38.2819 12.8044 38.6086C15.0457 40.282 17.5522 41.3609 20.1331 41.8799C20.4043 41.9344 20.6852 41.8554 20.8914 41.6717C24.4702 38.483 27.1234 35.1214 28.831 31.6154Z" fill="#E5601A"/>
    <path d="M29.6672 18.956C30.2965 19.1002 30.8962 18.5898 30.7854 17.9599C30.7427 17.7174 30.6965 17.4774 30.6471 17.2401C30.5649 16.8452 30.2153 16.5677 29.8096 16.5296C24.8157 16.0599 20.6644 12.3878 16.9221 8.17482C16.6604 7.88032 16.2353 7.7831 15.8774 7.95393C13.3489 9.16072 11.0632 10.9619 9.25443 13.3308C7.88083 15.1298 6.90009 17.1007 6.2961 19.1427C6.10526 19.788 6.71859 20.3536 7.37531 20.1821C17.2499 17.6023 24.4934 17.7706 29.6672 18.956Z" fill="#E5601A"/>
    <path d="M33.8588 9.43243C33.8144 9.20407 33.6748 9.00602 33.4757 8.88288C32.42 8.22979 31.3179 7.69608 30.1867 7.27938C29.4158 6.99541 28.7854 7.85352 29.1904 8.56182C30.035 10.039 30.9204 11.8759 31.6141 13.9982C31.7565 14.4339 32.2114 14.7267 32.6276 14.5246C32.9638 14.3614 33.2357 14.133 33.4444 13.8357C34.2561 12.7046 34.1165 10.7596 33.8588 9.43243Z" fill="#E5601A"/>
</svg>
