<svg width="28" height="28" viewBox="0 0 28 28" fill="none" xmlns="http://www.w3.org/2000/svg">
<path d="M13.9993 6.00008C13.6457 6.00008 13.3066 6.14056 13.0565 6.39061C12.8065 6.64065 12.666 6.97979 12.666 7.33341V20.6667C12.666 21.0204 12.8065 21.3595 13.0565 21.6096C13.3066 21.8596 13.6457 22.0001 13.9993 22.0001C14.353 22.0001 14.6921 21.8596 14.9422 21.6096C15.1922 21.3595 15.3327 21.0204 15.3327 20.6667V7.33341C15.3327 6.97979 15.1922 6.64065 14.9422 6.39061C14.6921 6.14056 14.353 6.00008 13.9993 6.00008ZM7.33268 14.0001C6.97906 14.0001 6.63992 14.1406 6.38987 14.3906C6.13982 14.6407 5.99935 14.9798 5.99935 15.3334V20.6667C5.99935 21.0204 6.13982 21.3595 6.38987 21.6096C6.63992 21.8596 6.97906 22.0001 7.33268 22.0001C7.6863 22.0001 8.02544 21.8596 8.27549 21.6096C8.52554 21.3595 8.66602 21.0204 8.66602 20.6667V15.3334C8.66602 14.9798 8.52554 14.6407 8.27549 14.3906C8.02544 14.1406 7.6863 14.0001 7.33268 14.0001ZM20.666 11.3334C20.3124 11.3334 19.9733 11.4739 19.7232 11.7239C19.4732 11.974 19.3327 12.3131 19.3327 12.6667V20.6667C19.3327 21.0204 19.4732 21.3595 19.7232 21.6096C19.9733 21.8596 20.3124 22.0001 20.666 22.0001C21.0196 22.0001 21.3588 21.8596 21.6088 21.6096C21.8589 21.3595 21.9993 21.0204 21.9993 20.6667V12.6667C21.9993 12.3131 21.8589 11.974 21.6088 11.7239C21.3588 11.4739 21.0196 11.3334 20.666 11.3334ZM23.3327 0.666748H4.66602C3.60515 0.666748 2.58773 1.08818 1.83759 1.83832C1.08744 2.58847 0.666016 3.60588 0.666016 4.66675V23.3334C0.666016 24.3943 1.08744 25.4117 1.83759 26.1618C2.58773 26.912 3.60515 27.3334 4.66602 27.3334H23.3327C24.3935 27.3334 25.411 26.912 26.1611 26.1618C26.9113 25.4117 27.3327 24.3943 27.3327 23.3334V4.66675C27.3327 3.60588 26.9113 2.58847 26.1611 1.83832C25.411 1.08818 24.3935 0.666748 23.3327 0.666748ZM24.666 23.3334C24.666 23.687 24.5255 24.0262 24.2755 24.2762C24.0254 24.5263 23.6863 24.6667 23.3327 24.6667H4.66602C4.31239 24.6667 3.97326 24.5263 3.72321 24.2762C3.47316 24.0262 3.33268 23.687 3.33268 23.3334V4.66675C3.33268 4.31313 3.47316 3.97399 3.72321 3.72394C3.97326 3.47389 4.31239 3.33341 4.66602 3.33341H23.3327C23.6863 3.33341 24.0254 3.47389 24.2755 3.72394C24.5255 3.97399 24.666 4.31313 24.666 4.66675V23.3334Z" fill="#E55807"/>
</svg>
