<svg width="18" height="18" viewBox="0 0 18 18" fill="none" xmlns="http://www.w3.org/2000/svg">
<path d="M3.88078 0C5.24457 0 6.48802 0.763393 7.21003 1.92857C7.89192 3.13393 7.89192 4.62054 7.21003 5.78571C6.48802 6.99107 5.24457 7.71429 3.88078 7.71429C2.47688 7.71429 1.23343 6.99107 0.511421 5.78571C-0.170474 4.62054 -0.170474 3.13393 0.511421 1.92857C1.23343 0.763393 2.47688 0 3.88078 0ZM3.88078 10.2857C5.24457 10.2857 6.48802 11.0491 7.21003 12.2143C7.89192 13.4196 7.89192 14.9062 7.21003 16.0714C6.48802 17.2768 5.24457 18 3.88078 18C2.47688 18 1.23343 17.2768 0.511421 16.0714C-0.170474 14.9062 -0.170474 13.4196 0.511421 12.2143C1.23343 11.0491 2.47688 10.2857 3.88078 10.2857ZM10.2986 3.85714C10.2986 2.49107 11.0206 1.24554 12.224 0.522321C13.3872 -0.160714 14.8713 -0.160714 16.0747 0.522321C17.2379 1.24554 18 2.49107 18 3.85714C18 5.26339 17.2379 6.50893 16.0747 7.23214C14.8713 7.91518 13.3872 7.91518 12.224 7.23214C11.0206 6.50893 10.2986 5.26339 10.2986 3.85714ZM14.1493 10.2857C15.5131 10.2857 16.7565 11.0491 17.4786 12.2143C18.1604 13.4196 18.1604 14.9062 17.4786 16.0714C16.7565 17.2768 15.5131 18 14.1493 18C12.7454 18 11.5019 17.2768 10.7799 16.0714C10.0981 14.9062 10.0981 13.4196 10.7799 12.2143C11.5019 11.0491 12.7454 10.2857 14.1493 10.2857Z" fill="#313A3E"/>
</svg>
