<svg width="25" height="26" viewBox="0 0 25 26" fill="none" xmlns="http://www.w3.org/2000/svg">
<path d="M16.3339 20.5V21.4375C16.3339 22.4321 15.909 23.3859 15.1527 24.0892C14.3963 24.7924 13.3706 25.1875 12.3009 25.1875C11.2313 25.1875 10.2056 24.7924 9.44923 24.0892C8.6929 23.3859 8.268 22.4321 8.268 21.4375V20.5M23.1193 18.5916C21.5011 16.75 20.3586 15.8125 20.3586 10.7354C20.3586 6.08594 17.8053 4.42949 15.7037 3.625C15.4246 3.51836 15.1618 3.27344 15.0767 3.00684C14.7081 1.84023 13.6747 0.8125 12.3009 0.8125C10.9272 0.8125 9.89315 1.84082 9.5283 3.00801C9.44323 3.27754 9.18046 3.51836 8.9013 3.625C6.79724 4.43066 4.2464 6.08125 4.2464 10.7354C4.24325 15.8125 3.1008 16.75 1.48258 18.5916C0.8121 19.3545 1.3994 20.5 2.5721 20.5H22.0361C23.2025 20.5 23.786 19.351 23.1193 18.5916Z" stroke="#FFAA79" stroke-width="1.5" stroke-linecap="round" stroke-linejoin="round"/>
</svg>
