<svg width="40" height="30" viewBox="0 0 40 30" fill="none" xmlns="http://www.w3.org/2000/svg">
<rect width="40" height="30" fill="white"/>
<path d="M37.95 27.95H20.95V21.4856C23.9928 21.0558 26.35 18.3159 26.35 15C26.35 11.7416 23.9926 9.00223 20.95 8.57248V2.05H37.95V7.52143H36.7206C33.2331 7.52143 30.2085 9.93202 29.4305 13.3317C29.1792 14.4297 29.1792 15.5703 29.4305 16.6683C30.2085 20.068 33.2331 22.4786 36.7206 22.4786H37.95V27.95ZM19.05 2.05V8.57237C15.9517 9.00182 13.65 11.7417 13.65 15C13.65 18.3157 15.9515 21.0562 19.05 21.4857V27.95H2.05V22.4786L3.45646 22.4786C6.90837 22.4786 9.91181 20.116 10.7247 16.7612C11.0051 15.6038 11.0051 14.3962 10.7247 13.2388C9.91181 9.88402 6.90837 7.52143 3.45646 7.52143L2.05 7.52143V2.05H19.05ZM19.05 10.5344V19.522C17.0233 19.0406 15.55 17.2182 15.55 15C15.55 12.8382 17.0243 10.9604 19.05 10.5344ZM24.45 15C24.45 17.2169 22.9231 19.0394 20.95 19.5216V10.5347C22.922 10.9615 24.45 12.8394 24.45 15ZM31.4897 13.476C32.1694 11.1092 34.3342 9.47857 36.7966 9.47857H37.95V20.5214H36.7966C34.3342 20.5214 32.1694 18.8908 31.4897 16.524C31.2037 15.5281 31.2037 14.4719 31.4897 13.476ZM8.61031 16.524C7.93062 18.8908 5.76582 20.5214 3.30338 20.5214L2.05 20.5214V9.47857H3.30338C5.76582 9.47857 7.93062 11.1092 8.61031 13.476C8.89631 14.4719 8.89631 15.5281 8.61031 16.524Z" fill="#E5601A" stroke="white" stroke-width="0.1"/>
</svg>
