<svg width="30" height="30" viewBox="0 0 30 30" fill="none" xmlns="http://www.w3.org/2000/svg">
<path d="M26.864 15.7984V14.191L28.9357 12.426C29.3176 12.0983 29.5682 11.6497 29.6433 11.1594C29.7183 10.6692 29.6129 10.1689 29.3457 9.74701L26.7992 5.54464C26.61 5.22554 26.3379 4.96049 26.0103 4.77609C25.6826 4.59169 25.3109 4.49443 24.9325 4.49405C24.698 4.4923 24.4647 4.52778 24.2419 4.59911L21.6198 5.46059C21.1671 5.1677 20.6949 4.90447 20.2063 4.67265L19.656 2.02515C19.5573 1.54147 19.2871 1.10698 18.8925 0.797749C18.498 0.488519 18.0043 0.32425 17.4979 0.333699H12.448C11.9416 0.32425 11.448 0.488519 11.0534 0.797749C10.6589 1.10698 10.3886 1.54147 10.29 2.02515L9.73964 4.67265C9.24753 4.90441 8.77171 5.16763 8.31531 5.46059L5.74721 4.55708C5.52201 4.49996 5.2888 4.47867 5.05662 4.49405C4.67818 4.49443 4.30649 4.59169 3.97884 4.77609C3.65119 4.96049 3.37911 5.22554 3.18989 5.54464L0.64336 9.74701C0.391498 10.1683 0.297908 10.6617 0.378617 11.1428C0.459326 11.6239 0.709314 12.0627 1.08576 12.384L3.12514 14.2015V15.8089L1.08576 17.5739C0.69868 17.8975 0.441855 18.3442 0.360866 18.8346C0.279877 19.325 0.379962 19.8275 0.64336 20.2529L3.18989 24.4553C3.37911 24.7744 3.65119 25.0395 3.97884 25.2239C4.30649 25.4083 4.67818 25.5055 5.05662 25.5059C5.29115 25.5077 5.5244 25.4722 5.74721 25.4009L8.36927 24.5394C8.82197 24.8323 9.29419 25.0955 9.7828 25.3273L10.3331 27.9748C10.4318 28.4585 10.702 28.893 11.0966 29.2022C11.4911 29.5114 11.9848 29.6757 12.4912 29.6663H17.5842C18.0906 29.6757 18.5843 29.5114 18.9788 29.2022C19.3734 28.893 19.6436 28.4585 19.7423 27.9748L20.2926 25.3273C20.7847 25.0956 21.2606 24.8323 21.717 24.5394L24.3282 25.4009C24.551 25.4722 24.7843 25.5077 25.0188 25.5059C25.3973 25.5055 25.7689 25.4083 26.0966 25.2239C26.4242 25.0395 26.6963 24.7744 26.8855 24.4553L29.3457 20.2529C29.5976 19.8317 29.6912 19.3382 29.6105 18.8572C29.5298 18.3761 29.2798 17.9373 28.9033 17.616L26.864 15.7984ZM24.9325 23.4047L21.2314 22.186C20.365 22.9006 19.3748 23.4591 18.3072 23.8355L17.5411 27.6071H12.448L11.6819 23.8775C10.6228 23.4904 9.63791 22.9329 8.76851 22.2281L5.05662 23.4047L2.51009 19.2024L5.44508 16.6809C5.24556 15.5934 5.24556 14.4801 5.44508 13.3926L2.51009 10.7976L5.05662 6.59523L8.75772 7.81392C9.62412 7.09941 10.6143 6.54087 11.6819 6.16449L12.448 2.39286H17.5411L18.3072 6.12247C19.3664 6.50953 20.3512 7.0671 21.2206 7.7719L24.9325 6.59523L27.479 10.7976L24.544 13.319C24.7435 14.4065 24.7435 15.5199 24.544 16.6074L27.479 19.2024L24.9325 23.4047Z" fill="#818181"/>
<path d="M14.9947 21.3035C13.7143 21.3035 12.4625 20.9338 11.3978 20.2411C10.3332 19.5485 9.50335 18.564 9.01333 17.4122C8.52331 16.2604 8.3951 14.9929 8.64491 13.7701C8.89472 12.5474 9.51133 11.4242 10.4168 10.5426C11.3222 9.66105 12.4758 9.0607 13.7317 8.81747C14.9876 8.57425 16.2893 8.69908 17.4723 9.17618C18.6553 9.65328 19.6665 10.4612 20.3779 11.4978C21.0892 12.5345 21.469 13.7532 21.469 14.9999C21.4776 15.83 21.3161 16.6535 20.9938 17.4221C20.6715 18.1907 20.1949 18.889 19.592 19.476C18.9891 20.063 18.2719 20.527 17.4825 20.8408C16.6931 21.1546 15.8473 21.3119 14.9947 21.3035ZM14.9947 10.7975C14.4243 10.7846 13.8571 10.8845 13.3274 11.0911C12.7978 11.2977 12.3166 11.6067 11.9132 11.9996C11.5097 12.3924 11.1923 12.8608 10.9801 13.3766C10.7679 13.8923 10.6653 14.4445 10.6786 14.9999C10.6653 15.5553 10.7679 16.1076 10.9801 16.6233C11.1923 17.139 11.5097 17.6074 11.9132 18.0002C12.3166 18.3931 12.7978 18.7021 13.3274 18.9088C13.8571 19.1154 14.4243 19.2152 14.9947 19.2023C15.5652 19.2152 16.1324 19.1154 16.662 18.9088C17.1917 18.7021 17.6728 18.3931 18.0763 18.0002C18.4798 17.6074 18.7972 17.139 19.0094 16.6233C19.2216 16.1076 19.3242 15.5553 19.3109 14.9999C19.3242 14.4445 19.2216 13.8923 19.0094 13.3766C18.7972 12.8608 18.4798 12.3924 18.0763 11.9996C17.6728 11.6067 17.1917 11.2977 16.662 11.0911C16.1324 10.8845 15.5652 10.7846 14.9947 10.7975Z" fill="#818181"/>
</svg>
