<svg width="30" height="30" viewBox="0 0 30 30" fill="none" xmlns="http://www.w3.org/2000/svg">
<path d="M26.8645 15.7984V14.191L28.9362 12.426C29.3181 12.0982 29.5687 11.6496 29.6437 11.1594C29.7188 10.6691 29.6134 10.1689 29.3462 9.74695L26.7997 5.54458C26.6105 5.22548 26.3384 4.96043 26.0108 4.77603C25.6831 4.59163 25.3114 4.49437 24.933 4.49399C24.6984 4.49224 24.4652 4.52772 24.2424 4.59905L21.6203 5.46053C21.1676 5.16764 20.6954 4.90441 20.2068 4.67259L19.6565 2.02509C19.5578 1.54141 19.2876 1.10692 18.893 0.797688C18.4985 0.488458 18.0048 0.324189 17.4984 0.333638H12.4485C11.9421 0.324189 11.4484 0.488458 11.0539 0.797688C10.6594 1.10692 10.3891 1.54141 10.2904 2.02509L9.74013 4.67259C9.24802 4.90435 8.7722 5.16757 8.3158 5.46053L5.74769 4.55702C5.5225 4.4999 5.28929 4.47861 5.05711 4.49399C4.67866 4.49437 4.30697 4.59163 3.97933 4.77603C3.65168 4.96043 3.3796 5.22548 3.19038 5.54458L0.643848 9.74695C0.391987 10.1682 0.298396 10.6617 0.379105 11.1427C0.459815 11.6238 0.709802 12.0626 1.08625 12.3839L3.12563 14.2015V15.8089L1.08625 17.5739C0.699169 17.8975 0.442343 18.3441 0.361354 18.8345C0.280365 19.325 0.38045 19.8275 0.643848 20.2529L3.19038 24.4553C3.3796 24.7744 3.65168 25.0394 3.97933 25.2238C4.30697 25.4082 4.67866 25.5055 5.05711 25.5059C5.29164 25.5076 5.52489 25.4721 5.74769 25.4008L8.36975 24.5393C8.82245 24.8322 9.29468 25.0954 9.78329 25.3273L10.3336 27.9747C10.4323 28.4584 10.7025 28.8929 11.0971 29.2022C11.4916 29.5114 11.9853 29.6756 12.4917 29.6662H17.5847C18.0911 29.6756 18.5848 29.5114 18.9793 29.2022C19.3739 28.8929 19.6441 28.4584 19.7428 27.9747L20.2931 25.3273C20.7852 25.0955 21.261 24.8323 21.7174 24.5393L24.3287 25.4008C24.5515 25.4721 24.7848 25.5076 25.0193 25.5059C25.3977 25.5055 25.7694 25.4082 26.0971 25.2238C26.4247 25.0394 26.6968 24.7744 26.886 24.4553L29.3462 20.2529C29.5981 19.8316 29.6917 19.3382 29.611 18.8571C29.5303 18.376 29.2803 17.9372 28.9038 17.6159L26.8645 15.7984ZM24.933 23.4047L21.2319 22.186C20.3655 22.9005 19.3753 23.459 18.3077 23.8354L17.5416 27.607H12.4485L11.6824 23.8774C10.6232 23.4904 9.6384 22.9328 8.769 22.228L5.05711 23.4047L2.51058 19.2023L5.44556 16.6809C5.24605 15.5934 5.24605 14.48 5.44556 13.3925L2.51058 10.7975L5.05711 6.59517L8.75821 7.81386C9.62461 7.09935 10.6148 6.54081 11.6824 6.16443L12.4485 2.3928H17.5416L18.3077 6.12241C19.3668 6.50947 20.3517 7.06704 21.2211 7.77184L24.933 6.59517L27.4795 10.7975L24.5445 13.319C24.744 14.4065 24.744 15.5198 24.5445 16.6073L27.4795 19.2023L24.933 23.4047Z" fill="#E55807"/>
<path d="M14.9957 21.3034C13.7152 21.3034 12.4635 20.9337 11.3988 20.2411C10.3341 19.5484 9.50433 18.5639 9.01431 17.4121C8.52429 16.2603 8.39608 14.9929 8.64589 13.7701C8.8957 12.5473 9.51231 11.4241 10.4177 10.5426C11.3232 9.66099 12.4768 9.06064 13.7327 8.81741C14.9885 8.57419 16.2903 8.69902 17.4733 9.17612C18.6563 9.65322 19.6674 10.4612 20.3788 11.4978C21.0902 12.5344 21.4699 13.7531 21.4699 14.9999C21.4786 15.83 21.317 16.6535 20.9947 17.4221C20.6725 18.1906 20.1959 18.8889 19.593 19.4759C18.99 20.063 18.2729 20.5269 17.4835 20.8407C16.6941 21.1545 15.8483 21.3118 14.9957 21.3034ZM14.9957 10.7975C14.4253 10.7845 13.8581 10.8844 13.3284 11.091C12.7987 11.2976 12.3176 11.6067 11.9141 11.9995C11.5107 12.3924 11.1932 12.8608 10.981 13.3765C10.7688 13.8922 10.6663 14.4444 10.6796 14.9999C10.6663 15.5553 10.7688 16.1075 10.981 16.6232C11.1932 17.1389 11.5107 17.6074 11.9141 18.0002C12.3176 18.393 12.7987 18.7021 13.3284 18.9087C13.8581 19.1153 14.4253 19.2152 14.9957 19.2022C15.5661 19.2152 16.1334 19.1153 16.663 18.9087C17.1927 18.7021 17.6738 18.393 18.0773 18.0002C18.4807 17.6074 18.7982 17.1389 19.0104 16.6232C19.2226 16.1075 19.3251 15.5553 19.3119 14.9999C19.3251 14.4444 19.2226 13.8922 19.0104 13.3765C18.7982 12.8608 18.4807 12.3924 18.0773 11.9995C17.6738 11.6067 17.1927 11.2976 16.663 11.091C16.1334 10.8844 15.5661 10.7845 14.9957 10.7975Z" fill="#E55807"/>
</svg>
