<svg width="240" height="57" viewBox="0 0 240 57" fill="none" xmlns="http://www.w3.org/2000/svg">
<path d="M46.2682 25.7282C45.3996 25.2822 44.4457 24.8477 43.4124 24.4336C43.4146 25.3464 43.3912 26.2709 43.3253 27.2126C43.0876 30.5895 42.3973 33.9011 41.2618 37.1403C44.2257 38.5328 46.0343 40.5501 46.6445 43.1526C47.4284 46.4974 45.9894 50.1558 44.2856 53.0544C47.2703 51.2157 49.9741 48.8186 52.2195 45.8733C54.629 42.7127 56.2865 39.2224 57.2285 35.6132C56.13 33.7198 52.9544 29.1612 46.2682 25.7282Z" fill="white"/>
<path d="M37.5708 38.791C26.4075 35.8434 12.1408 45.4288 7.8725 48.8268C8.85428 49.8084 9.91432 50.7357 11.0602 51.5926C14.8699 54.4415 19.1555 56.2219 23.5556 57C30.11 51.2603 34.7967 45.1691 37.5708 38.791Z" fill="white"/>
<path d="M40.331 20.433C40.1534 18.9169 39.8881 17.4533 39.5549 16.0517C30.6948 15.7508 23.469 9.14136 16.9861 1.70303C12.5263 3.63945 8.48719 6.69678 5.34287 10.8212C2.61828 14.3951 0.853486 18.3897 0 22.5012C18.5225 17.286 31.5248 17.9595 40.331 20.433Z" fill="white"/>
<path d="M44.8465 3.96149C41.9163 2.06457 38.7527 0.750804 35.5008 0C37.4456 2.86957 40.0548 7.41915 41.737 13.1395C42.8838 12.9325 43.7349 12.4405 44.2993 11.6355C45.7286 9.64064 45.3264 6.0766 44.8465 3.96149Z" fill="white"/>
<path d="M79.4119 43.382C77.2389 43.382 75.6411 43.287 74.6185 43.0971C73.5959 42.9072 73.0846 42.6857 73.0846 42.4325L75.002 38.3022C75.737 38.4288 77.5585 38.5554 80.4665 38.682C83.4065 38.777 87.433 38.8244 92.546 38.8244H93.4567C94.8308 38.8244 95.8055 38.5871 96.3807 38.1123C96.9559 37.6059 97.2435 36.7672 97.2435 35.5962V34.6467C97.2435 33.539 97.0039 32.7477 96.5245 32.273C96.0771 31.7982 95.0545 31.5608 93.4567 31.5608H82.3359C79.1084 31.5608 76.7596 30.9753 75.2896 29.8043C73.8196 28.6016 73.0846 26.6552 73.0846 23.9649V23.2053C73.0846 21.8128 73.3402 20.5309 73.8515 19.3599C74.3948 18.1889 75.3055 17.2552 76.5838 16.5589C77.8621 15.831 79.6197 15.467 81.8566 15.467H94.8947C97.0678 15.467 98.8254 15.5778 100.168 15.7993C101.51 16.0209 102.181 16.2582 102.181 16.5114L101.222 20.4993C100.391 20.4043 98.5058 20.3094 95.5658 20.2144C92.6258 20.0879 88.6792 20.0246 83.726 20.0246L83.1988 19.9771C81.7288 19.9771 80.7381 20.2777 80.2268 20.8791C79.7155 21.4488 79.4439 22.1767 79.4119 23.0629V23.87C79.4119 24.9144 79.6995 25.7057 80.2747 26.2437C80.8819 26.7501 81.8726 27.0033 83.2467 27.0033H93.8881C95.9333 27.0033 97.6749 27.209 99.113 27.6205C100.551 28.0319 101.653 28.7915 102.42 29.8992C103.187 30.9753 103.571 32.5736 103.571 34.6942V35.4538C103.571 37.8275 102.948 39.7423 101.701 41.1982C100.487 42.6541 98.362 43.382 95.3261 43.382H79.4119Z" fill="white"/>
<path d="M110.754 43.382V19.265L110.275 15.4195H131.51C133.555 15.4195 135.153 15.6885 136.303 16.2266C137.486 16.7646 138.349 17.4768 138.892 18.3629C139.467 19.2175 139.834 20.1353 139.994 21.1165C140.154 22.0976 140.234 23.0313 140.234 23.9175V26.7185C140.234 27.4464 140.122 28.2693 139.898 29.1871C139.675 30.0733 139.259 30.9437 138.652 31.7982C138.045 32.6211 137.166 33.3174 136.016 33.8871C134.865 34.4251 133.363 34.6942 131.51 34.6942H126.621C124.607 34.6942 122.722 34.6467 120.964 34.5517C119.239 34.4568 117.944 34.3777 117.082 34.3144V43.382H110.754ZM117.082 30.1366H130.12C131.558 30.1366 132.548 29.7885 133.092 29.0922C133.635 28.3959 133.907 27.5572 133.907 26.576V23.5851C133.907 22.5723 133.635 21.7178 133.092 21.0215C132.548 20.3252 131.574 19.9771 130.168 19.9771H117.082V30.1366Z" fill="white"/>
<path d="M146.928 43.382L147.407 39.584V15.467H153.735V38.8244H173.579L175.497 42.8598C175.497 42.9864 175.065 43.113 174.203 43.2396C173.34 43.3345 171.854 43.382 169.745 43.382H146.928Z" fill="white"/>
<path d="M175.954 43.382L189.999 15.467H199.442L213.439 43.382H206.057L203.229 37.3527H186.069L182.953 43.382H175.954ZM187.794 32.7002H201.456L194.888 19.7397H194.409L187.794 32.7002Z" fill="white"/>
<path d="M221.162 43.382L221.114 19.9771H208.651V15.4195H240V19.9771H227.489V43.382H221.162Z" fill="white"/>
</svg>
