<svg width="28" height="28" viewBox="0 0 28 28" fill="none" xmlns="http://www.w3.org/2000/svg">
<path d="M14.0003 0.666672C6.66699 0.666672 0.666992 6.66667 0.666992 14C0.666992 21.3333 6.66699 27.3333 14.0003 27.3333C21.3337 27.3333 27.3337 21.3333 27.3337 14C27.3337 6.66667 21.3337 0.666672 14.0003 0.666672ZM14.0003 24.6667C8.12033 24.6667 3.33366 19.88 3.33366 14C3.33366 8.12 8.12033 3.33334 14.0003 3.33334C19.8803 3.33334 24.667 8.12 24.667 14C24.667 19.88 19.8803 24.6667 14.0003 24.6667ZM20.1203 8.10667L11.3337 16.8933L7.88032 13.4533L6.00033 15.3333L11.3337 20.6667L22.0003 10L20.1203 8.10667Z" fill="#29CC6A"/>
</svg>
