<svg width="23" height="27" viewBox="0 0 23 27" fill="none" xmlns="http://www.w3.org/2000/svg">
<path d="M21.9245 12.5221C20.5227 12.1814 19.5459 10.992 19.5459 9.63219V0.666671C19.5459 0.337935 19.2605 0.0689697 18.9116 0.0689697H15.1059C14.7571 0.0689697 14.4716 0.337935 14.4716 0.666671V6.64368C14.4716 8.29035 13.0477 9.63219 11.3002 9.63219C9.55274 9.63219 8.12877 8.29035 8.12877 6.64368V0.666671C8.12877 0.337935 7.84334 0.0689697 7.49448 0.0689697H3.68877C3.33991 0.0689697 3.05448 0.337935 3.05448 0.666671V9.63219C3.05448 10.992 2.07768 12.1814 0.67591 12.5221C0.396824 12.5908 0.200195 12.8269 0.200195 13.1018V26.3678C0.200195 26.6966 0.485624 26.9655 0.834481 26.9655H21.7659C22.1148 26.9655 22.4002 26.6966 22.4002 26.3678V13.1018C22.4002 12.8269 22.2036 12.5908 21.9245 12.5221ZM21.1316 25.7701H1.46877V13.5382C3.17182 12.9255 4.32305 11.3805 4.32305 9.63219V1.26437H6.8602V6.64368C6.8602 8.95081 8.85185 10.8276 11.3002 10.8276C13.7485 10.8276 15.7402 8.95081 15.7402 6.64368V1.26437H18.2773V9.63219C18.2773 11.3805 19.4286 12.9255 21.1316 13.5382V25.7701ZM16.0605 16.7209L13.165 16.3235L11.8711 13.852C11.7632 13.6458 11.5412 13.5172 11.3002 13.5172C11.0592 13.5172 10.8372 13.6458 10.7325 13.852L9.43857 16.3235L6.54305 16.7209C6.3052 16.7538 6.1054 16.9122 6.03245 17.1274C5.95951 17.3425 6.01977 17.5816 6.1942 17.74L8.29051 19.6646L7.79577 22.3812C7.75454 22.6053 7.85285 22.8324 8.04948 22.9669C8.24611 23.1014 8.503 23.1193 8.71865 23.0117L11.3002 21.7297L13.8913 23.0117C13.9832 23.0566 14.0847 23.0805 14.1862 23.0805C14.3162 23.0805 14.4494 23.0416 14.5604 22.9669C14.7571 22.8324 14.8522 22.6053 14.8141 22.3812L14.3194 19.6646L16.4157 17.74C16.5901 17.5816 16.6504 17.3425 16.5775 17.1274C16.4982 16.9092 16.2984 16.7538 16.0605 16.7209ZM13.1904 19.028C13.0413 19.1655 12.9715 19.3628 13.0064 19.557L13.3394 21.392L11.592 20.5253C11.5 20.4805 11.3985 20.4566 11.297 20.4566C11.1955 20.4566 11.0941 20.4805 11.0021 20.5253L9.25462 21.392L9.58762 19.557C9.62251 19.3628 9.55591 19.1655 9.40368 19.028L7.98922 17.731L9.94282 17.4621C10.149 17.4352 10.3266 17.3126 10.4217 17.1363L11.3002 15.4658L12.1723 17.1333C12.2643 17.3097 12.4419 17.4322 12.6512 17.4591L14.6048 17.728L13.1904 19.028Z" fill="#FFAA79"/>
</svg>
