<svg width="11" height="11" viewBox="0 0 11 11" fill="none" xmlns="http://www.w3.org/2000/svg">
    <path d="M1.25497 10.463C0.8352 10.0433 0.852937 9.31615 1.24315 8.93188L4.40623 5.76903L1.24315 2.61209C0.852937 2.22782 0.841112 1.50657 1.25497 1.08683C1.67475 0.667087 2.40196 0.684823 2.78626 1.06909L5.94935 4.22603L9.10061 1.07501C9.50856 0.667087 10.2062 0.672999 10.626 1.09274C11.0458 1.50657 11.0517 2.21008 10.6437 2.618L7.49246 5.76903L10.6437 8.92596C11.0517 9.33388 11.0458 10.0374 10.626 10.4571C10.2121 10.8769 9.50856 10.8769 9.10061 10.469L5.94935 7.31202L2.78626 10.4749C2.40196 10.8591 1.67475 10.8769 1.25497 10.463Z" fill="#313A3E"/>
</svg>
